<?xml version="1.0" encoding="UTF-8"?>
<!DOCTYPE svg PUBLIC "-//W3C//DTD SVG 1.1//EN" "http://www.w3.org/Graphics/SVG/1.1/DTD/svg11.dtd">
<!-- Creator: CorelDRAW 2019 (64-Bit) -->
<svg xmlns="http://www.w3.org/2000/svg" xml:space="preserve" width="103.801mm" height="117.475mm" version="1.1" style="shape-rendering:geometricPrecision; text-rendering:geometricPrecision; image-rendering:optimizeQuality; fill-rule:evenodd; clip-rule:evenodd"
viewBox="0 0 10294.92 11651.11"
 xmlns:xlink="http://www.w3.org/1999/xlink">
 <defs>
  <style type="text/css">
   <![CDATA[
    .str4 {stroke:#FEFEFE;stroke-width:497.02;stroke-linecap:round;stroke-linejoin:round;stroke-miterlimit:22.9256;stroke-opacity:0.180392}
    .str3 {stroke:#FEFEFE;stroke-width:497.02;stroke-linecap:round;stroke-linejoin:round;stroke-miterlimit:22.9256;stroke-opacity:0.180392}
    .str29 {stroke:#373435;stroke-width:350.69;stroke-miterlimit:22.9256}
    .str24 {stroke:#373435;stroke-width:41.56;stroke-miterlimit:22.9256}
    .str25 {stroke:#373435;stroke-width:41.56;stroke-miterlimit:22.9256}
    .str28 {stroke:#373435;stroke-width:59.54;stroke-miterlimit:22.9256}
    .str23 {stroke:#FDD1A1;stroke-width:75.73;stroke-miterlimit:22.9256}
    .str26 {stroke:#FDD1A1;stroke-width:75.75;stroke-miterlimit:22.9256}
    .str27 {stroke:#373435;stroke-width:75.75;stroke-miterlimit:22.9256}
    .str30 {stroke:#373435;stroke-width:60.85;stroke-miterlimit:22.9256}
    .str22 {stroke:#FEFEFE;stroke-width:432.79;stroke-linecap:round;stroke-linejoin:round;stroke-miterlimit:22.9256}
    .str7 {stroke:#FEFEFE;stroke-width:432.8;stroke-linecap:round;stroke-linejoin:round;stroke-miterlimit:22.9256}
    .str1 {stroke:#FEFEFE;stroke-width:432.81;stroke-linecap:round;stroke-linejoin:round;stroke-miterlimit:22.9256}
    .str2 {stroke:#FEFEFE;stroke-width:432.81;stroke-linecap:round;stroke-linejoin:round;stroke-miterlimit:22.9256}
    .str9 {stroke:#FEFEFE;stroke-width:497.02;stroke-linecap:round;stroke-linejoin:round;stroke-miterlimit:22.9256}
    .str21 {stroke:#FEFEFE;stroke-width:497.02;stroke-linecap:round;stroke-linejoin:round;stroke-miterlimit:22.9256}
    .str20 {stroke:#FEFEFE;stroke-width:497.02;stroke-linecap:round;stroke-linejoin:round;stroke-miterlimit:22.9256}
    .str5 {stroke:#FEFEFE;stroke-width:497.02;stroke-linecap:round;stroke-linejoin:round;stroke-miterlimit:22.9256}
    .str10 {stroke:#FEFEFE;stroke-width:497.02;stroke-linecap:round;stroke-linejoin:round;stroke-miterlimit:22.9256}
    .str15 {stroke:#FEFEFE;stroke-width:497.02;stroke-linecap:round;stroke-linejoin:round;stroke-miterlimit:22.9256}
    .str11 {stroke:#FEFEFE;stroke-width:497.02;stroke-linecap:round;stroke-linejoin:round;stroke-miterlimit:22.9256}
    .str13 {stroke:#FEFEFE;stroke-width:497.03;stroke-linecap:round;stroke-linejoin:round;stroke-miterlimit:22.9256}
    .str16 {stroke:#FEFEFE;stroke-width:497.03;stroke-linecap:round;stroke-linejoin:round;stroke-miterlimit:22.9256}
    .str14 {stroke:#FEFEFE;stroke-width:497.03;stroke-linecap:round;stroke-linejoin:round;stroke-miterlimit:22.9256}
    .str17 {stroke:#FEFEFE;stroke-width:497.03;stroke-linecap:round;stroke-linejoin:round;stroke-miterlimit:22.9256}
    .str12 {stroke:#FEFEFE;stroke-width:497.03;stroke-linecap:round;stroke-linejoin:round;stroke-miterlimit:22.9256}
    .str19 {stroke:#FEFEFE;stroke-width:497.03;stroke-linecap:round;stroke-linejoin:round;stroke-miterlimit:22.9256}
    .str18 {stroke:#FEFEFE;stroke-width:497.03;stroke-linecap:round;stroke-linejoin:round;stroke-miterlimit:22.9256}
    .str0 {stroke:#FEFEFE;stroke-width:497.04;stroke-linecap:round;stroke-linejoin:round;stroke-miterlimit:22.9256}
    .str6 {stroke:#FEFEFE;stroke-width:497.04;stroke-linecap:round;stroke-linejoin:round;stroke-miterlimit:22.9256}
    .str8 {stroke:#FEFEFE;stroke-width:497.23;stroke-linecap:round;stroke-linejoin:round;stroke-miterlimit:22.9256}
    .fil3 {fill:none}
    .fil8 {fill:#FEFEFE}
    .fil1 {fill:#373435}
    .fil0 {fill:#FDD1A1}
    .fil9 {fill:#4E2921}
    .fil4 {fill:#EC268F}
    .fil5 {fill:#FEFEFE;fill-rule:nonzero}
    .fil2 {fill:#FEFEFE;fill-opacity:0.180392}
    .fil6 {fill:#373435;fill-opacity:0.290196}
    .fil7 {fill:#FEFEFE;fill-rule:nonzero;fill-opacity:0.290196}
   ]]>
  </style>
 </defs>
 <g id="Capa_x0020_1">
  <metadata id="CorelCorpID_0Corel-Layer"/>
  <g id="_2274649115200">
   <path class="fil0 str0" d="M1275.28 8800.67c-514.59,510.39 -1036.2,-1.95 -858.31,-709.84 188.2,-748.81 577.04,-1302.08 834.42,-2008.84 225.7,615.07 487.46,1008.9 713.19,1623.93 -355.91,-23.42 -602.15,387.35 -689.3,1094.74z"/>
   <path class="fil1 str1" d="M6965.4 10281.22c29.13,389.83 -62.87,663.62 -332.06,767.92 -367.5,29.64 -1157.25,206.31 -1487.31,83.71 -224.51,-83.43 -410.05,-291.29 -398.62,-709.69 738.31,-67.2 1479.72,-74.76 2218,-141.94z"/>
   <path class="fil1 str2" d="M4020.64 10434.38c22.73,304.54 -28.4,538.31 -180.24,675.7 -168.42,152.45 -483.34,134.66 -696.89,164.04 -350.09,48.16 -731.46,48.4 -937.69,-28.21 -224.47,-83.36 -400.92,-371.49 -389.5,-789.88 738.3,-67.2 1466.04,45.53 2204.32,-21.65z"/>
   <path class="fil2 str3" d="M6965.4 10281.22c29.13,389.83 -62.87,663.62 -332.06,767.92 -367.5,29.64 -1157.27,206.31 -1487.31,83.71 -224.51,-83.41 1274.13,25.4 1285.55,-393 553.73,-50.38 -574.94,-383.96 -20.36,-417.57 184.84,-11.2 369.63,-24.27 554.18,-41.06z"/>
   <path class="fil2 str4" d="M4032.93 10433.75c29.13,389.83 -62.87,663.62 -332.06,767.92 -367.5,29.64 -1157.27,206.31 -1487.31,83.71 -224.51,-83.41 1274.13,25.4 1285.55,-393 553.73,-50.38 -574.94,-383.96 -20.36,-417.58 184.84,-11.19 369.63,-24.26 554.18,-41.05z"/>
   <path class="fil0 str5" d="M7211.21 8792.22c628.06,505.15 1145.84,-121.74 867.45,-884.15 -294.53,-806.51 -848.96,-1512.74 -1215.18,-2264.77l-582.04 1912.9c468.46,107.03 903.31,455.82 929.77,1236.02z"/>
   <path class="fil3" d="M7211.21 8792.22c628.06,505.15 1145.84,-121.74 867.45,-884.15 -294.53,-806.51 -848.96,-1512.74 -1215.18,-2264.77l-582.04 1912.9c468.46,107.03 903.31,455.82 929.77,1236.02z"/>
   <g>
    <path class="fil1 str6" d="M7146.2 8873.02c126.49,64.36 245.21,136.85 387.62,160.98 146.89,24.89 296.89,-6.78 415.67,-98.17 114.29,-87.94 196.17,-230.15 224.17,-370.94 25.1,-126.17 47.18,-260.24 12.79,-384.19l-75.82 -284.31 -601.77 -1147.64 -478.42 -812.78 -165.54 -281.28 -274.35 950.58 -264.14 925.76 142.43 39.57 173.23 75.85 162.7 104.65c170.67,134.08 298.08,309.87 377.56,511.75 58.37,148.29 81.97,307.05 111.39,463.96 55.42,48.73 109.25,99.53 175.26,132.34 56.39,28.03 119.11,44.03 181.99,47.44 213.76,11.55 382.08,-169.83 429.97,-366.02 27.86,-114.11 54.55,-235.83 26.68,-349.92l-60.96 -270.92 -559.6 -1157.99 -456.62 -825.76 -162.88 -294.66 -1.85 -1.97 -2.62 -0.58 -2.48 1 -306.28 954.47 -309.02 966.14c-4.04,14.96 17.98,27.51 28.01,31.27 109.94,41.15 225.22,70.96 325.8,131.49 219.23,131.91 385.16,337.95 459.78,584.07 43.92,144.95 45.75,297.66 55.01,448.99 -15.15,40.71 -3.4,88.11 32.29,116.83z"/>
   </g>
   <g>
    <path class="fil1 str7" d="M1208.9 8735.22c-50,53.18 -96.18,110.57 -157.79,149.7 -88.81,56.41 -201.04,80.02 -303.22,50.34 -101.16,-29.39 -181.76,-106.73 -234.15,-195.86 -32.18,-54.72 -62.09,-113.29 -71.28,-176.11l-26.04 -217.02 29.22 -248.24 372.55 -1022.63 314.89 -729.53 114.53 -265.24 1.47 -1.91 2.29 -0.73c1.62,-0.01 3.12,1.18 3.79,2.65l740.68 1613.83c6.65,14.78 -2.19,36.04 -17.34,41.75 -23.88,9.01 -51.04,1.35 -76.32,4.97 -97.65,14.02 -197.54,62.47 -258.52,143.23 -102.93,136.35 -177.9,294.02 -219.07,459.83l-61.08 426.46c11.09,32.7 3.58,70.24 -22.58,96.18 -137.28,88.49 -266.49,184.8 -435.5,197.88 -237.96,18.43 -443.14,-157.04 -511.41,-377.89 -34.12,-110.41 -65.89,-228.09 -47.1,-342.11l41.36 -261.14 409.95 -1017.75 334.85 -720 118.1 -253.98 341.27 809.59 321.96 770.75 -18.36 -0.15 -68.54 10.23 -66.03 20.96c-110.9,49.91 -224.72,141.98 -281.42,251.72 -126.92,245.67 -194.29,514.53 -271.14,780.23z"/>
   </g>
   <path class="fil3" d="M1275.28 8800.67c-514.59,510.39 -1036.2,-1.95 -858.31,-709.84 188.2,-748.81 577.04,-1302.08 834.42,-2008.84 225.7,615.07 487.46,1008.9 713.19,1623.93 -355.91,-23.42 -602.15,387.35 -689.3,1094.74z"/>
   <path class="fil0 str8" d="M5946.74 1983.43l-4028.78 209.55c-523.77,27.24 -929.04,496.04 -900.61,1041.87l168.68 3243.98c28.43,545.82 480.13,970.08 1003.89,942.75l4028.78 -209.55c523.67,-27.23 928.94,-496.03 900.61,-1041.76l-168.78 -3244.08c-28.34,-545.73 -480.03,-969.99 -1003.8,-942.76z"/>
   <g>
    <path class="fil4" d="M6470.65 7191.07l1332.63 2539.66c4.21,245.17 -120.93,404.24 -375.35,477.24 -2069.48,153.86 -3829.6,312.94 -5925.47,224.97 -401.15,-16.84 -749.86,-209.76 -728.57,-544.64 471.32,-802.63 649.99,-1679.49 1121.27,-2482.12 1525.17,-71.69 3050.34,-143.39 4575.48,-215.1z"/>
    <path id="1" class="fil5" d="M8022.09 9614.93l28.52 111.64 -466.12 119.97 -1332.63 -2539.66 437.6 -231.6 1332.63 2539.66zm-437.6 231.6l437.6 -231.6c63.71,121.43 17.41,271.72 -103.42,335.67 -120.83,63.95 -270.46,17.36 -334.18,-104.07zm-174.93 113.61l-49.66 8.88 16.71 -5.06 15.73 -5.26 14.69 -5.43 13.68 -5.54 12.69 -5.65 11.76 -5.75 10.77 -5.75 9.9 -5.79 9.06 -5.78 8.18 -5.71 7.46 -5.69 6.72 -5.61 6.12 -5.59 5.51 -5.51 5.01 -5.52 4.6 -5.56 4.23 -5.65 3.9 -5.75 3.63 -5.99 3.42 -6.28 3.16 -6.54 3 -7.02 2.84 -7.6 2.64 -8.12 2.4 -8.76 2.19 -9.52 1.9 -10.21 1.6 -10.94 1.25 -11.88 0.88 -12.73 0.46 -13.47 -0.02 -14.43 494.65 -8.33 0.02 31.03 -1.03 30.98 -2.13 30.73 -3.25 30.55 -4.43 30.5 -5.65 30.2 -6.87 29.89 -8.17 29.64 -9.46 29.27 -10.77 28.8 -12.12 28.35 -13.48 27.84 -14.75 27.07 -16.03 26.36 -17.31 25.59 -18.46 24.68 -19.62 23.75 -20.72 22.8 -21.74 21.78 -22.64 20.71 -23.57 19.68 -24.34 18.59 -25.12 17.55 -25.78 16.47 -26.44 15.47 -27.08 14.48 -27.61 13.49 -28.2 12.58 -28.73 11.67 -29.23 10.78 -29.69 9.94 -30.24 9.14 -49.66 8.88 -36.76 -495.66zm-49.66 8.88l136.07 477.91c-131.33,37.68 -268.28,-38.75 -305.85,-170.72 -37.57,-131.97 38.44,-269.51 169.78,-307.19zm-5847.22 215.64l0 0 193.84 7.46 192 6.08 190.29 4.74 188.71 3.43 187.24 2.18 185.89 0.98 184.69 -0.19 183.59 -1.3 182.61 -2.36 181.76 -3.39 181.01 -4.37 180.42 -5.32 179.93 -6.19 179.56 -7.04 179.31 -7.84 179.19 -8.59 179.18 -9.29 179.29 -9.98 179.52 -10.57 179.87 -11.15 180.36 -11.68 180.93 -12.16 181.64 -12.6 182.48 -12.98 183.41 -13.33 184.47 -13.63 185.65 -13.89 186.96 -14.08 188.36 -14.24 189.89 -14.35 191.55 -14.43 193.28 -14.44 36.76 495.66 -192.96 14.42 -191.33 14.41 -189.83 14.35 -188.42 14.24 -187.16 14.1 -186.01 13.9 -184.99 13.67 -184.09 13.37 -183.27 13.04 -182.61 12.68 -182.06 12.22 -181.61 11.76 -181.32 11.25 -181.09 10.67 -181.01 10.06 -181.06 9.39 -181.19 8.69 -181.45 7.93 -181.85 7.12 -182.33 6.29 -182.94 5.38 -183.67 4.43 -184.51 3.45 -185.47 2.4 -186.53 1.32 -187.73 0.19 -189.03 -1 -190.41 -2.22 -191.96 -3.49 -193.6 -4.82 -195.35 -6.18 -197.21 -7.6 0 0 20.41 -496.57zm-525.71 -170.01l33.79 -110.39 -0.43 14.04 0.51 12.67 1.29 11.63 1.97 10.75 2.64 10.12 3.3 9.74 4.02 9.55 4.85 9.56 5.77 9.69 6.79 9.87 7.94 10.09 9.17 10.27 10.51 10.48 11.88 10.59 13.3 10.63 14.76 10.63 16.16 10.5 17.54 10.3 18.92 10.04 20.23 9.68 21.51 9.26 22.68 8.79 23.78 8.22 24.88 7.66 25.88 7.03 26.75 6.34 27.59 5.63 28.33 4.9 29.01 4.13 29.64 3.34 30.15 2.54 30.57 1.72 -20.41 496.57 -44.31 -2.47 -44.02 -3.71 -43.67 -4.93 -43.33 -6.17 -42.94 -7.42 -42.49 -8.69 -42 -9.97 -41.45 -11.26 -40.91 -12.58 -40.35 -13.97 -39.66 -15.35 -38.95 -16.8 -38.2 -18.29 -37.39 -19.84 -36.53 -21.45 -35.56 -23.14 -34.49 -24.87 -33.35 -26.72 -32.05 -28.6 -30.61 -30.54 -28.99 -32.55 -27.19 -34.56 -25.14 -36.55 -22.89 -38.51 -20.4 -40.39 -17.72 -42.16 -14.79 -43.72 -11.7 -45.07 -8.48 -46.14 -5.2 -46.96 -1.87 -47.62 1.42 -47.9 33.79 -110.39 426.13 252.69zm33.79 -110.39l-493.72 -31.92c8.7,-136.96 126.29,-240.84 262.62,-232.03 136.33,8.81 239.8,126.99 231.1,263.95zm886.1 -2249.85l201.38 -121.9 -41.01 71.41 -39.59 71.97 -38.29 72.56 -37.07 73.11 -35.95 73.67 -34.97 74.24 -34.06 74.75 -33.24 75.26 -32.53 75.75 -31.94 76.22 -31.41 76.67 -31.02 77.12 -30.72 77.51 -30.5 77.87 -30.42 78.25 -30.43 78.59 -30.55 78.85 -30.77 79.17 -31.11 79.39 -31.53 79.6 -32.1 79.81 -32.77 79.95 -33.54 80.08 -34.44 80.16 -35.45 80.24 -36.56 80.25 -37.8 80.23 -39.15 80.19 -40.62 80.08 -42.18 79.94 -43.89 79.78 -45.67 79.5 -426.13 -252.69 41.03 -71.41 39.58 -71.96 38.29 -72.56 37.07 -73.12 35.97 -73.68 34.96 -74.22 34.06 -74.75 33.24 -75.26 32.53 -75.75 31.94 -76.23 31.42 -76.68 31.01 -77.09 30.72 -77.52 30.52 -77.89 30.41 -78.23 30.43 -78.59 30.55 -78.85 30.76 -79.15 31.11 -79.41 31.55 -79.61 32.09 -79.78 32.76 -79.96 33.54 -80.09 34.44 -80.16 35.45 -80.24 36.56 -80.25 37.79 -80.21 39.15 -80.2 40.62 -80.09 42.18 -79.94 43.88 -79.77 45.67 -79.5 201.38 -121.9 23.37 496.47zm201.38 -121.9l-426.13 -252.67c69.39,-118.18 221.05,-157.44 338.72,-87.66 117.67,69.77 156.8,222.15 87.42,340.33zm4143.62 -225.63l230.48 132.43 -142.99 6.72 -142.99 6.72 -142.99 6.71 -142.97 6.72 -142.99 6.72 -142.98 6.72 -143 6.72 -142.99 6.71 -142.97 6.72 -142.99 6.72 -142.98 6.72 -143 6.72 -142.99 6.71 -142.97 6.72 -142.99 6.72 -142.99 6.72 -143 6.72 -142.98 6.71 -142.98 6.72 -143 6.72 -142.99 6.71 -142.97 6.72 -142.99 6.72 -143 6.72 -142.99 6.71 -142.97 6.72 -143 6.72 -142.99 6.71 -142.98 6.72 -142.99 6.72 -142.99 6.71 -142.98 6.72 -23.37 -496.47 143 -6.72 142.99 -6.71 142.97 -6.72 143 -6.72 142.99 -6.71 142.98 -6.72 142.99 -6.72 142.99 -6.71 142.98 -6.72 142.99 -6.72 142.99 -6.72 142.99 -6.71 142.98 -6.72 143 -6.72 142.98 -6.71 142.98 -6.72 142.99 -6.72 142.99 -6.72 142.99 -6.72 142.99 -6.71 142.98 -6.72 142.98 -6.72 142.99 -6.72 142.99 -6.72 142.99 -6.71 142.98 -6.72 142.98 -6.72 142.99 -6.72 142.99 -6.72 142.99 -6.71 142.97 -6.72 142.99 -6.72 230.48 132.43 -437.6 231.6zm230.48 132.43l-23.37 -496.47c136.46,-6.41 252.32,99.53 258.77,236.62 6.45,137.1 -98.94,253.44 -235.4,259.85z"/>
   </g>
   <g id="_2274652332208">
    <path class="fil1" d="M5941.73 1888.18l-4028.75 209.56c-281.06,18.66 -540.01,145.98 -724.6,359.36 -90.3,104.42 -162.28,226.23 -206.08,357.15 -45.51,136.08 -60.85,281.87 -53.16,425.16l228.45 3240.94c22.9,265.83 135.85,514.74 334.87,695.13 93.05,84.35 202.66,151.8 320.97,193.96l183.51 45.7 192.95 6.78 14.23 -1.01 1998.21 -140.86 2012.45 -141.85 173.9 -31.2c112.23,-19.1 212.11,-87.07 300.34,-159.01 88.03,-71.81 161.85,-161.65 216.71,-261.14 86.21,-156.3 125.05,-333.84 118.28,-511.62l-168.73 -3244.05c-19.3,-292.49 -168.32,-567.1 -419.16,-724.59 -94.77,-59.5 -201.72,-101.18 -312.25,-118.65l-172.24 -9.24 -4028.75 209.55c-171.7,10.96 -333.05,71.22 -468.63,177.44 -88.69,69.47 -163.68,157.04 -220.02,254.57 -58.16,100.69 -108.7,211.38 -116.83,327.37 -42.11,601.01 22.3,1204.04 42.56,1806.19 20.4,606.27 -5.82,1216.78 79.89,1817.33 17.72,124.31 80.77,239.58 152.46,342.69 105.05,151.08 254.89,273.81 426.34,341.93l179.51 51.8 191.71 13.8 14.26 -0.47 2002.04 -67.21 2016.31 -67.7 206.59 -29.19c134.19,-19.24 256.25,-94.25 364.41,-176 162.54,-122.86 292.32,-297.72 360.32,-490.1 47.97,-135.68 65.83,-281.57 60.73,-425.39l-168.73 -3244.05c-9.85,-143.58 -43.48,-286.44 -104.11,-416.98 -115.54,-248.75 -329.59,-453.97 -587.13,-550.85 -131.09,-49.31 -273.52,-50.62 -412.82,-65.24z"/>
   </g>
   <path class="fil3" d="M5946.74 1983.43l-4028.78 209.55c-523.77,27.24 -929.04,496.04 -900.61,1041.87l168.68 3243.98c28.43,545.82 480.13,970.08 1003.89,942.75l4028.78 -209.55c523.67,-27.23 928.94,-496.03 900.61,-1041.76l-168.78 -3244.08c-28.34,-545.73 -480.03,-969.99 -1003.8,-942.76z"/>
   <g>
    <path class="fil1" d="M7109.15 5592.17c0,0 -6.04,18.72 11.05,39.13 35.65,327.31 139.04,660.74 300.63,961.79 16.98,20.56 33.48,41.3 50.47,61.93 105.74,181.28 194.32,342.02 306.38,504.93 11.07,38.9 44.77,80.13 49.45,137.81 67.83,82.36 111.79,162.95 213.85,210.22 5.94,-18.43 29.5,-16.25 29.5,-16.25 22.46,2.08 44.96,4.17 56.84,-32.67 41.78,-129.6 61.02,-261.04 56.88,-395.19 -14.58,-172.63 16.59,-341.22 70.32,-507.82 459.67,175.93 942.83,277.98 1502.16,291.82 22.9,2.12 74.55,-12.3 103.61,-28.59 0.74,-76.13 -32.96,-117.38 -111.88,-162.64 -17.21,-20.9 -39.73,-22.99 -62.85,-25.13 -89.71,-84.36 -186.04,-150.69 -304.86,-218.73 -198.05,-113.71 -338.65,-260.13 -473.49,-425.06 424.65,-151.34 786.32,-327.32 1114.92,-544.72 5.96,-18.5 5.96,-18.5 11.86,-36.78 6.13,-19.03 6.13,-19.03 12.03,-37.31 -23.18,-2.14 -23.18,-2.14 -39.7,-22.66 -85.2,-27.04 -176.19,-35.48 -273.49,-25.36 -519.55,9.23 -1049.97,-21.13 -1545.87,-85.93 -22.49,-2.08 -45.33,-4.21 -61.72,-25.32 -22.93,-2.12 -71.42,12.23 -68.75,-6.38 169.36,-1185.91 -1101.07,-1123.44 -947.33,388.92z"/>
    <path id="1" class="fil5" d="M7367.6 5604.24l-494.81 54.11 56.43 132.45 -7.62 -9.46 -7.27 -9.81 -6.65 -9.73 -6.83 -10.93 -5.83 -10.27 -5.36 -10.3 -5.31 -11.35 -4.44 -10.59 -3.96 -10.54 -3.54 -10.67 -3.12 -10.74 -2.78 -11.14 -2.02 -9.68 -1.71 -9.69 -1.51 -10.84 -0.93 -9.05 -0.69 -9.77 -0.35 -9.55 -0.06 -7.27 0.19 -9.07 0.39 -7.68 0.58 -7.59 0.91 -8.57 0.69 -5.36 1.04 -6.81 1.54 -8.42 0.84 -4.12 0.74 -3.38 2.55 -10.27 0.64 -2.32 -0.35 1.25 3.27 -10.99 473.7 152.16 3.23 -10.89 -0.43 1.59 0.49 -1.81 2.37 -9.54 0.55 -2.45 0.6 -3.01 1.3 -7.13 0.82 -5.35 0.48 -3.71 0.71 -6.78 0.44 -5.62 0.27 -5.55 0.15 -6.83 -0.04 -4.87 -0.27 -7.03 -0.5 -7.11 -0.65 -6.29 -1.11 -7.94 -1.17 -6.69 -1.39 -6.61 -1.98 -7.94 -2.17 -7.47 -2.43 -7.32 -2.67 -7.11 -2.98 -7.08 -3.64 -7.78 -3.47 -6.69 -3.75 -6.59 -4.51 -7.22 -4.07 -5.96 -4.47 -6.02 -4.54 -5.65 56.43 132.45zm-56.43 -132.45c88.12,105.26 74.07,262.01 -31.4,350.1 -105.47,88.09 -262.42,74.18 -350.54,-31.08l381.94 -319.02zm301.69 963.07l-384.06 316.46 -27.32 -40.67 -16.38 -30.98 -16.01 -31.16 -15.62 -31.35 -15.24 -31.53 -14.86 -31.69 -14.47 -31.86 -14.09 -32.03 -13.69 -32.14 -13.3 -32.27 -12.91 -32.41 -12.54 -32.58 -12.13 -32.7 -11.72 -32.78 -11.34 -32.9 -10.95 -33.01 -10.54 -33.13 -10.14 -33.2 -9.74 -33.27 -9.32 -33.34 -8.95 -33.44 -8.51 -33.49 -8.11 -33.54 -7.7 -33.62 -7.29 -33.64 -6.87 -33.72 -6.44 -33.71 -6.04 -33.75 -5.61 -33.8 -5.19 -33.81 -4.75 -33.8 -4.32 -33.79 -3.91 -33.83 494.81 -54.11 3.17 27.58 3.55 27.66 3.9 27.71 4.25 27.72 4.6 27.75 4.97 27.8 5.33 27.84 5.66 27.79 6.02 27.81 6.37 27.81 6.72 27.79 7.06 27.78 7.4 27.71 7.76 27.71 8.09 27.66 8.43 27.6 8.76 27.49 9.1 27.47 9.43 27.38 9.78 27.3 10.09 27.19 10.41 27.07 10.75 27 11.08 26.9 11.39 26.75 11.69 26.58 12.03 26.46 12.34 26.33 12.65 26.15 12.96 25.99 13.27 25.85 13.57 25.65 -27.32 -40.67zm27.32 40.67c64.91,120.93 19.32,271.61 -101.82,336.54 -121.14,64.92 -271.98,19.51 -336.89,-101.42l438.71 -235.11zm46.18 54.26l-430.12 250.45 22.81 32.74 -1.63 -1.98 -1.6 -1.93 -2.07 -2.52 -1.78 -2.18 -1.59 -1.94 -1.62 -1.98 -1.78 -2.18 -1.58 -1.94 -1.38 -1.69 -2.02 -2.48 -1.57 -1.94 -1.58 -1.93 -1.81 -2.24 -1.13 -1.39 -1.78 -2.18 -1.81 -2.24 -1.37 -1.69 -1.53 -1.88 -1.58 -1.94 -1.37 -1.69 -1.58 -1.93 -1.57 -1.93 -1.58 -1.93 -1.57 -1.93 -1.33 -1.64 -1.34 -1.64 -1.59 -1.93 -1.58 -1.93 -1.15 -1.4 -1.59 -1.92 -1.59 -1.93 -1.28 -1.56 384.06 -316.46 1.89 2.29 1.59 1.93 1.59 1.92 2.02 2.47 1.58 1.93 1.59 1.93 1.81 2.23 1.82 2.23 1.57 1.93 1.58 1.93 1.57 1.93 1.58 1.93 1.77 2.18 1.58 1.94 1.61 1.98 1.77 2.18 1.33 1.65 1.38 1.69 2 2.48 1.33 1.65 1.58 1.93 1.57 1.94 1.13 1.39 1.78 2.18 1.58 1.94 1.38 1.69 1.54 1.88 1.59 1.94 1.38 1.69 1.1 1.35 1.6 1.93 1.55 1.88 22.81 32.74zm-22.81 -32.74c87.27,105.97 71.94,262.61 -34.23,349.85 -106.17,87.24 -263,72.05 -350.27,-33.92l384.5 -315.93zm353.51 594.79l-478.76 136.21 34.22 72.73 -11.21 -16.4 -11.07 -16.38 -10.94 -16.37 -10.78 -16.33 -10.62 -16.27 -10.49 -16.25 -10.39 -16.25 -10.27 -16.25 -10.13 -16.15 -10.06 -16.17 -9.98 -16.2 -9.83 -16.09 -9.79 -16.12 -9.75 -16.19 -9.63 -16.11 -9.56 -16.07 -9.55 -16.14 -9.5 -16.15 -9.41 -16.05 -9.45 -16.18 -9.41 -16.18 -9.38 -16.14 -9.43 -16.29 -9.37 -16.22 -9.39 -16.23 -9.44 -16.35 -9.47 -16.38 -9.48 -16.4 -9.55 -16.49 -9.57 -16.53 -9.61 -16.54 -9.74 -16.71 430.12 -250.45 10 17.17 9.93 17.08 9.79 16.89 9.67 16.71 9.58 16.58 9.47 16.4 9.4 16.26 9.35 16.19 9.27 16.04 9.15 15.79 9.16 15.78 9.07 15.6 9.04 15.44 9.06 15.45 8.97 15.23 8.96 15.12 8.97 15.08 8.96 14.96 8.9 14.78 8.96 14.75 9 14.72 8.97 14.55 9.03 14.52 9.07 14.48 9.08 14.34 9.14 14.3 9.24 14.3 9.29 14.24 9.35 14.17 9.43 14.13 9.56 14.14 9.66 14.12 34.22 72.73zm-34.22 -72.73c77.79,113.09 48.99,267.84 -64.31,345.62 -113.3,77.78 -268.23,49.14 -346.02,-63.95l410.33 -281.67zm36.54 120.67l-384.5 315.95 -55.8 -137.7 0.26 2.66 0.3 2.32 0.34 2.12 0.41 2.11 0.4 1.82 0.33 1.3 0.33 1.2 0.31 1.02 0.16 0.49 -0.03 -0.07 0 -0.02 -0.19 -0.46 -0.43 -1.02 -0.62 -1.45 -0.8 -1.81 -0.78 -1.71 -1.12 -2.38 -1.47 -3.06 -1.61 -3.33 -1.65 -3.39 -2.01 -4.11 -2.24 -4.64 -2.45 -5.09 -2.62 -5.55 -2.75 -5.93 -3.01 -6.72 -3.09 -7.15 -3.4 -8.26 -3.35 -8.68 -3.26 -9.01 -3.39 -10.16 -3.32 -11.03 478.76 -136.21 -1.12 -3.73 -0.93 -2.82 -0.59 -1.63 -0.48 -1.24 -0.33 -0.8 0.16 0.37 0.39 0.85 0.8 1.73 1.01 2.16 1.3 2.69 1.57 3.23 1.87 3.83 2.26 4.66 2.32 4.8 2.46 5.17 2.81 5.95 3.08 6.74 3.01 6.76 3.12 7.24 3.22 7.79 3.36 8.49 3.39 9.05 3.22 9.15 3.25 9.85 3.2 10.54 3.01 10.86 2.79 11.14 2.62 11.82 2.35 12.29 2 12.48 1.67 12.85 1.31 13.37 -55.8 -137.7zm55.8 137.7c11.1,136.8 -90.96,256.8 -227.94,267.98 -136.99,11.19 -257.05,-90.64 -268.15,-227.44l496.1 -40.54zm-271.08 154.48l473.76 152.02 -341.71 149.48 -16.17 -7.8 -15.74 -8.17 -15.51 -8.67 -14.93 -8.96 -14.32 -9.18 -13.94 -9.53 -13.42 -9.76 -12.83 -9.88 -12.31 -10.03 -11.94 -10.26 -11.21 -10.14 -10.78 -10.2 -10.27 -10.18 -9.68 -9.98 -9.41 -10.09 -8.84 -9.81 -8.37 -9.59 -7.99 -9.41 -7.69 -9.27 -7.34 -9.07 -6.97 -8.77 -6.66 -8.5 -6.37 -8.2 -6.12 -7.95 -6 -7.83 -5.67 -7.43 -5.46 -7.1 -5.35 -6.93 -5.14 -6.6 -5.02 -6.36 -4.96 -6.19 -4.85 -5.94 384.5 -315.95 7.73 9.49 7.38 9.2 7.1 9 6.78 8.7 6.42 8.3 6.18 8.05 5.85 7.65 5.46 7.13 5.31 6.88 5.06 6.54 4.76 6.08 4.51 5.67 4.23 5.22 4 4.83 3.83 4.51 3.63 4.16 3.34 3.72 3.01 3.22 3.02 3.09 2.68 2.68 2.53 2.38 2.42 2.2 2.08 1.79 2.13 1.74 2.04 1.59 1.93 1.41 1.9 1.3 2.04 1.31 2.01 1.22 2.02 1.13 2.41 1.25 2.64 1.27 -341.71 149.48zm341.71 -149.48c124.65,57.72 178.76,205.49 120.87,330.02 -57.89,124.53 -205.89,178.69 -330.54,120.97l209.67 -450.99zm-52.15 -38.22l-46.38 494.95 0.02 0 4.5 0.38 3.86 0.26 0.93 0.05 5.12 0.21 2.85 0.07 1.72 0.02 5.82 -0.04 4.43 -0.13 3.56 -0.18 4.23 -0.29 4.77 -0.44 6.37 -0.75 6.03 -0.89 6.62 -1.19 6.21 -1.31 7.07 -1.75 8.3 -2.37 8.51 -2.81 9.45 -3.58 10.04 -4.36 10.54 -5.24 10.65 -6.03 11.02 -7.09 12.12 -8.91 11.94 -10.08 10.83 -10.47 11.53 -12.86 10.66 -13.88 9.33 -14.26 8.6 -15.63 7.27 -16.08 5.67 -15.59 -473.76 -152.02 6.88 -18.92 8.68 -19.19 10.19 -18.51 11.08 -16.92 12.55 -16.33 13.56 -15.11 12.97 -12.54 14.16 -11.96 14.46 -10.61 13.4 -8.62 13.11 -7.42 13.02 -6.47 12.56 -5.45 11.97 -4.53 11.05 -3.64 10.8 -3.08 9.53 -2.34 8.63 -1.82 8.96 -1.61 8.31 -1.23 8.55 -1.01 6.83 -0.61 6.17 -0.43 5.37 -0.26 6.08 -0.19 7.29 -0.04 3.01 0.04 3.94 0.09 5.99 0.25 1.57 0.09 4.25 0.28 4.64 0.4 0.02 0zm-0.02 0c136.84,12.67 237.41,133.75 224.61,270.42 -12.79,136.67 -134.11,237.19 -270.95,224.52l46.34 -494.95zm-203.21 138.79l473.76 152.02 -0.01 0.03 -4.14 12.07 -4.81 12.42 -5.43 12.48 -6.43 13.14 -7.39 13.44 -8.38 13.52 -9.09 13.06 -10.58 13.53 -11.95 13.47 -12.75 12.69 -13.67 11.95 -14.43 11.08 -15.48 10.35 -15.82 9.12 -15.3 7.59 -15.97 6.75 -15.76 5.55 -14.39 4.21 -14.42 3.4 -13.32 2.46 -12.03 1.69 -11.38 1.15 -10.69 0.67 -9.36 0.3 -8.69 0.03 -8.01 -0.18 -6.18 -0.26 -5.55 -0.32 -5.56 -0.4 -3.81 -0.32 -3.26 -0.28 -2.86 -0.27 46.38 -494.95 1.35 0.13 0.94 0.08 0.4 0.04 -1.38 -0.1 -1.37 -0.08 -2.03 -0.08 -3.87 -0.08 -4.58 0.01 -5.3 0.18 -6.65 0.42 -7.39 0.75 -8.06 1.13 -9.41 1.75 -10.55 2.49 -10.58 3.09 -12.01 4.24 -12.28 5.19 -11.69 5.8 -12.27 7.08 -12.01 8.03 -11.02 8.46 -10.35 9.06 -9.52 9.47 -8.8 9.92 -7.55 9.64 -6.14 8.82 -5.52 8.92 -4.63 8.42 -3.79 7.75 -2.91 6.66 -2.39 6.19 -1.85 5.39 -0.01 0.03zm45.78 -298.1l495.96 -42.15 0.76 13.24 0.39 15.21 0.23 15.29 0.05 15.28 -0.11 15.18 -0.28 15.17 -0.44 15.24 -0.61 15.24 -0.77 15.04 -0.93 15.23 -1.11 15.19 -1.26 14.99 -1.43 15.17 -1.62 15.15 -1.75 14.94 -1.91 15.03 -2.1 15.11 -2.25 14.99 -2.41 14.95 -2.57 14.94 -2.74 14.95 -2.9 14.87 -3.05 14.87 -3.21 14.86 -3.37 14.83 -3.54 14.77 -3.66 14.67 -3.85 14.75 -4.01 14.7 -4.16 14.67 -4.31 14.68 -4.44 14.51 -4.61 14.58 -473.76 -152.02 3.08 -9.74 3 -9.81 2.87 -9.68 2.75 -9.71 2.64 -9.7 2.52 -9.67 2.45 -9.79 2.31 -9.69 2.2 -9.67 2.1 -9.66 1.98 -9.69 1.88 -9.69 1.77 -9.65 1.68 -9.7 1.56 -9.69 1.46 -9.69 1.33 -9.59 1.24 -9.71 1.15 -9.82 1.02 -9.62 0.91 -9.64 0.82 -9.85 0.71 -9.66 0.6 -9.66 0.5 -9.9 0.4 -9.71 0.28 -9.73 0.18 -9.84 0.07 -9.87 -0.03 -9.79 -0.15 -9.82 -0.25 -9.92 0.76 13.24zm-0.76 -13.24c-4.23,-137.19 103.71,-251.93 241.09,-256.25 137.37,-4.32 252.17,103.38 256.4,240.58l-497.48 15.67zm408.27 -747.74l-178.42 464.18 326.08 -156.06 -4.35 13.68 -4.23 13.72 -4.09 13.61 -3.92 13.51 -3.8 13.54 -3.62 13.36 -3.48 13.38 -3.33 13.31 -3.15 13.21 -3 13.17 -2.84 13.08 -2.68 13.08 -2.52 13.02 -2.35 12.96 -2.18 12.85 -1.99 12.73 -1.81 12.73 -1.67 12.74 -1.49 12.68 -1.31 12.62 -1.13 12.48 -0.94 12.49 -0.77 12.44 -0.59 12.38 -0.41 12.41 -0.23 12.27 -0.03 12.3 0.16 12.26 0.34 12.15 0.55 12.18 0.73 12.23 0.92 12.16 -495.96 42.15 -1.54 -20.19 -1.21 -20.06 -0.88 -20.07 -0.58 -20.06 -0.24 -19.9 0.05 -19.82 0.35 -19.81 0.64 -19.63 0.92 -19.62 1.21 -19.52 1.48 -19.43 1.75 -19.4 2 -19.22 2.24 -19.12 2.48 -19.01 2.73 -18.98 2.97 -18.96 3.17 -18.78 3.38 -18.66 3.59 -18.58 3.79 -18.48 3.99 -18.44 4.19 -18.33 4.36 -18.25 4.52 -18.11 4.69 -18.04 4.87 -18 5.01 -17.82 5.17 -17.81 5.32 -17.69 5.43 -17.56 5.58 -17.56 326.08 -156.06zm-326.08 156.06c42.14,-130.68 182.36,-202.57 313.18,-160.59 130.82,41.98 202.7,181.97 160.56,312.65l-473.74 -152.06zm1762.22 120.37l-46.38 494.95 16.83 0.99 -54.72 -1.64 -54.34 -2.16 -53.92 -2.72 -53.52 -3.24 -53.14 -3.79 -52.75 -4.3 -52.39 -4.85 -52.02 -5.38 -51.67 -5.89 -51.34 -6.44 -50.96 -6.94 -50.64 -7.46 -50.32 -7.99 -49.98 -8.49 -49.67 -9.01 -49.37 -9.5 -49.09 -10.03 -48.78 -10.51 -48.52 -11.02 -48.19 -11.51 -47.93 -11.99 -47.74 -12.5 -47.41 -12.97 -47.17 -13.44 -46.96 -13.93 -46.71 -14.4 -46.48 -14.88 -46.27 -15.33 -46.05 -15.79 -45.84 -16.25 -45.65 -16.69 -45.48 -17.15 178.42 -464.18 40.84 15.4 40.97 14.99 41.1 14.56 41.23 14.14 41.35 13.71 41.52 13.27 41.68 12.85 41.82 12.41 42.07 11.99 42.25 11.56 42.42 11.11 42.7 10.68 42.93 10.25 43.16 9.81 43.42 9.36 43.68 8.92 44 8.47 44.29 8.03 44.6 7.58 44.89 7.12 45.25 6.66 45.62 6.23 45.92 5.74 46.32 5.3 46.7 4.82 47.09 4.35 47.52 3.89 47.9 3.41 48.36 2.93 48.77 2.46 49.22 1.96 49.72 1.48 16.83 0.99zm-16.83 -0.99c137.39,3.39 245.94,117.4 242.42,254.61 -3.51,137.21 -117.75,245.71 -255.14,242.32l12.71 -496.93zm-151.6 217.64l497.7 4.46 -127.14 214.47 -7.9 4.3 -7.2 3.73 -7.26 3.59 -7.19 3.38 -6.75 3.04 -7.03 3.03 -6.91 2.86 -6.55 2.6 -6.63 2.52 -6.8 2.49 -6.33 2.22 -6.44 2.18 -6.85 2.22 -6.4 1.97 -6.55 1.95 -6.7 1.9 -6.67 1.81 -6.86 1.76 -6.7 1.62 -6.93 1.59 -7.02 1.5 -6.91 1.37 -7.62 1.38 -8.04 1.31 -7.78 1.1 -7.93 0.98 -9 0.9 -9.87 0.73 -9.94 0.45 -11.12 0.15 -12.61 -0.31 -14.01 -0.96 46.38 -494.95 -9.55 -0.66 -7.83 -0.19 -6.04 0.07 -4.58 0.21 -4.25 0.32 -3.14 0.31 -1.84 0.23 -1.49 0.21 -1.56 0.26 -0.97 0.17 -0.11 0.02 -0.1 0.03 0.09 -0.02 0.44 -0.11 0.34 -0.09 0.59 -0.16 0.58 -0.16 0.77 -0.23 0.9 -0.29 0.45 -0.14 0.8 -0.28 0.87 -0.3 0.3 -0.11 0.4 -0.16 0.36 -0.14 -0.13 0.06 -0.43 0.18 -0.29 0.13 -0.94 0.45 -1.21 0.6 -1.37 0.71 -2.33 1.27 -127.14 214.47zm127.14 -214.47c119.88,-67.22 271.56,-24.7 338.78,94.97 67.21,119.67 24.53,271.2 -95.35,338.42l-243.43 -433.39zm-182.43 212.01l384.52 -315.91 -68.21 -57.6 10.25 5.97 10.21 6.15 10.26 6.4 10.45 6.78 10.22 6.91 10.37 7.32 10.57 7.86 10.35 8.08 10.56 8.71 10.53 9.2 10.41 9.68 10.44 10.35 10.31 10.97 10.05 11.49 9.88 12.2 9.58 12.86 9.11 13.34 8.69 13.96 8.16 14.47 7.62 15.01 6.85 15.14 6.23 15.5 5.53 15.79 4.75 15.65 4.04 15.62 3.37 15.62 2.75 15.68 2.06 15.15 1.52 15.03 0.98 14.83 0.5 14.45 0.07 14.24 -497.7 -4.46 0.01 0.18 0.02 0.76 0.11 1.54 0.21 2.09 0.36 2.58 0.6 3.42 0.79 3.7 1.04 4.02 1.32 4.34 1.67 4.74 1.9 4.75 2.09 4.61 2.4 4.73 2.49 4.41 2.56 4.13 2.53 3.7 2.52 3.38 2.34 2.9 2.05 2.35 1.82 1.94 1.48 1.47 0.97 0.91 0.6 0.52 0.11 0.1 -0.58 -0.45 -0.85 -0.63 -1.59 -1.11 -2.22 -1.52 -2.52 -1.63 -3.23 -2.01 -3.8 -2.28 -4.29 -2.5 -68.21 -57.6zm68.21 57.6c-119.14,-68.32 -160.18,-220.24 -91.68,-339.28 68.5,-119.05 220.64,-160.15 339.79,-91.83l-248.11 431.11zm-109.47 -59.69l341.36 -362 -147.5 -66.47 2.5 0.23 2.73 0.26 2.84 0.28 3.96 0.41 4.4 0.49 3.98 0.48 4.53 0.58 5.12 0.71 5.76 0.88 6.25 1.06 6.23 1.16 6.9 1.42 7.45 1.7 7.43 1.87 7.92 2.19 8.42 2.56 8.51 2.85 8.94 3.28 9.32 3.75 9.64 4.24 9.41 4.54 9.87 5.18 9.75 5.58 9.65 6.01 9.28 6.27 9.62 7.01 9.71 7.72 8.92 7.68 8.67 8.04 8.36 8.39 8.28 8.97 7.59 8.88 -384.52 315.91 4.33 5.07 4.97 5.38 4.97 5 5.24 4.85 5.43 4.68 6.18 4.9 6.01 4.39 5.65 3.81 5.94 3.71 6.02 3.44 6.08 3.19 5.58 2.7 5.77 2.54 5.42 2.18 4.99 1.83 4.52 1.52 4.39 1.33 3.88 1.08 3.34 0.84 3.34 0.76 2.76 0.57 2.06 0.39 2.06 0.35 1.56 0.25 0.87 0.12 0.29 0.04 -0.31 -0.04 0.12 0.01 -0.33 -0.03 -1.49 -0.14 -1.6 -0.16 -1.82 -0.17 -147.5 -66.47zm147.5 66.47c-136.84,-12.68 -237.4,-133.76 -224.6,-270.43 12.79,-136.67 134.12,-237.19 270.96,-224.51l-46.36 494.95zm-405.83 -250.71l248.31 -430.99 -0.25 -0.14 12.09 6.95 11.89 6.92 11.89 6.99 11.88 7.08 11.71 7.05 11.6 7.08 11.56 7.14 11.53 7.22 11.45 7.26 11.3 7.27 11.36 7.41 11.29 7.49 11.11 7.47 11.07 7.56 11.07 7.67 11.07 7.81 10.85 7.79 10.88 7.9 10.85 8.04 10.67 8.04 10.72 8.21 10.64 8.3 10.52 8.34 10.53 8.5 10.51 8.64 10.38 8.69 10.32 8.8 10.31 8.96 10.19 8.99 10.2 9.16 10.12 9.26 10.06 9.37 -341.36 362 -6.8 -6.34 -6.82 -6.25 -6.84 -6.15 -6.93 -6.13 -6.92 -6 -7.01 -5.96 -7.05 -5.91 -7.06 -5.8 -7.16 -5.78 -7.29 -5.78 -7.31 -5.7 -7.39 -5.65 -7.58 -5.7 -7.54 -5.58 -7.69 -5.6 -7.86 -5.62 -7.84 -5.52 -7.99 -5.54 -8.19 -5.59 -8.33 -5.6 -8.33 -5.52 -8.48 -5.52 -8.74 -5.62 -8.81 -5.59 -8.94 -5.59 -9.12 -5.63 -9.3 -5.67 -9.45 -5.7 -9.5 -5.65 -9.75 -5.72 -9.99 -5.81 -10.07 -5.8 -0.25 -0.14zm0.25 0.14c-119.18,-68.25 -160.33,-220.13 -91.91,-339.21 68.42,-119.08 220.54,-160.3 339.72,-92.06l-247.81 431.27zm-433.07 -874.77l166.96 468.15 109.34 -391.35 11.87 14.46 11.81 14.22 11.8 14.04 11.79 13.86 11.78 13.68 11.73 13.41 11.78 13.26 11.8 13.07 11.77 12.82 11.82 12.63 11.86 12.45 11.85 12.2 11.99 12.06 12.03 11.86 12.05 11.62 12.21 11.49 12.22 11.24 12.37 11.09 12.49 10.92 12.58 10.69 12.73 10.56 12.87 10.36 13.01 10.19 13.23 10.05 13.39 9.89 13.55 9.68 13.79 9.55 14.04 9.4 14.24 9.24 14.5 9.09 14.78 8.95 15.08 8.81 -248.31 430.99 -21.72 -12.69 -21.38 -12.95 -21.01 -13.16 -20.65 -13.39 -20.25 -13.59 -19.94 -13.8 -19.62 -14.02 -19.22 -14.17 -18.86 -14.33 -18.59 -14.55 -18.23 -14.69 -17.91 -14.83 -17.63 -15.02 -17.27 -15.11 -17.01 -15.23 -16.74 -15.4 -16.39 -15.44 -16.22 -15.61 -15.88 -15.67 -15.62 -15.73 -15.46 -15.89 -15.17 -15.92 -14.96 -16 -14.77 -16.08 -14.52 -16.09 -14.34 -16.14 -14.21 -16.25 -13.98 -16.22 -13.86 -16.28 -13.71 -16.32 -13.6 -16.36 -13.44 -16.36 109.34 -391.35zm-109.34 391.35c-86.89,-106.28 -71,-262.87 35.48,-349.73 106.48,-86.86 263.26,-71.11 350.15,35.17l-385.63 314.56zm1070.84 -777.98l473.78 151.96 -99.57 131.18 -32.66 21.41 -32.86 21.15 -33.03 20.87 -33.28 20.66 -33.54 20.42 -33.73 20.15 -33.96 19.91 -34.16 19.65 -34.44 19.45 -34.69 19.2 -34.89 18.96 -35.16 18.72 -35.39 18.51 -35.72 18.31 -35.94 18.06 -36.16 17.82 -36.48 17.63 -36.77 17.43 -37.02 17.21 -37.29 16.99 -37.61 16.81 -37.92 16.6 -38.18 16.39 -38.48 16.21 -38.79 16.02 -39.14 15.84 -39.43 15.65 -39.75 15.47 -40.07 15.28 -40.4 15.11 -40.73 14.96 -41.09 14.79 -166.96 -468.15 38.15 -13.74 37.8 -13.87 37.42 -14 37.03 -14.13 36.66 -14.26 36.3 -14.4 35.92 -14.55 35.62 -14.71 35.25 -14.84 34.93 -15.01 34.56 -15.13 34.24 -15.3 33.98 -15.48 33.63 -15.62 33.29 -15.78 33.03 -15.97 32.77 -16.16 32.45 -16.3 32.11 -16.46 31.92 -16.68 31.65 -16.87 31.38 -17.04 31.1 -17.22 30.86 -17.43 30.67 -17.64 30.41 -17.82 30.18 -18.03 29.93 -18.22 29.73 -18.46 29.6 -18.71 29.35 -18.88 29.15 -19.11 -99.57 131.18zm99.57 -131.18c114.61,-75.83 269.02,-44.56 344.86,69.85 75.83,114.41 44.4,268.65 -70.21,344.48l-274.65 -414.33zm-87.71 94.46l473.8 151.86 -0.05 0.17 -0.56 1.71 -0.54 1.67 -0.52 1.58 -0.32 0.99 -0.38 1.16 -0.54 1.68 -0.14 0.42 -0.3 0.94 -0.73 2.28 -0.19 0.58 -0.16 0.5 -0.64 1.99 -0.03 0.08 -0.27 0.84 -0.54 1.66 -0.01 0.04 -0.16 0.47 -0.42 1.31 -0.3 0.92 -0.44 1.35 -0.21 0.63 -0.22 0.69 -0.36 1.11 -0.17 0.53 -0.51 1.57 -0.6 1.88 -0.17 0.52 -0.39 1.2 -0.65 2.03 -0.22 0.67 -0.63 1.97 -0.55 1.7 -473.78 -151.96 0.55 -1.66 0.38 -1.2 0.73 -2.28 0.26 -0.76 0.45 -1.44 0.64 -1.96 0.15 -0.46 0.21 -0.65 0.51 -1.6 0.3 -0.89 0.4 -1.25 0.41 -1.23 0.14 -0.46 0.28 -0.84 0.14 -0.44 0.4 -1.26 0.55 -1.69 0.04 -0.09 0.29 -0.92 0.57 -1.73 -0.05 0.15 0.46 -1.43 0.47 -1.43 -0.06 0.2 0.4 -1.26 0.61 -1.9 0.26 -0.78 0.46 -1.44 0.58 -1.77 0.44 -1.36 0.48 -1.47 0.52 -1.61 -0.05 0.17zm225.81 286.1l46.24 -494.96 213.73 323.58 -0.56 1.71 -0.54 1.67 -0.52 1.58 -0.32 0.99 -0.38 1.16 -0.54 1.68 -0.44 1.35 -0.23 0.68 -0.3 0.95 -0.3 0.9 -0.15 0.48 -0.53 1.63 -0.41 1.25 -0.01 0.05 -0.54 1.65 -0.16 0.49 -0.15 0.5 -0.43 1.31 -0.56 1.73 -0.08 0.21 -0.21 0.67 -0.36 1.1 -0.04 0.14 -0.6 1.87 -0.69 2.17 -0.24 0.71 -0.19 0.59 -0.41 1.25 -0.51 1.61 -0.69 2.13 -0.43 1.33 -0.53 1.63 -473.8 -151.86 0.59 -1.82 0.62 -1.92 0.3 -0.92 0.41 -1.27 0.47 -1.45 0.62 -1.97 0.56 -1.69 0.04 -0.11 0.09 -0.29 0.61 -1.94 0.3 -0.88 0.39 -1.23 0.54 -1.64 0.02 -0.08 0.15 -0.46 0.41 -1.27 0.42 -1.26 0.02 -0.1 0.57 -1.74 0.19 -0.58 0.07 -0.24 0.47 -1.45 0.36 -1.12 0.38 -1.15 0.49 -1.52 0.32 -0.97 0.26 -0.78 0.46 -1.44 0.58 -1.77 0.44 -1.36 0.48 -1.47 0.52 -1.61 213.73 323.58zm-213.73 -323.58c42.18,-130.67 182.43,-202.52 313.24,-160.5 130.81,42.02 202.64,182.03 160.46,312.7l-473.7 -152.2zm121.62 290.31l151.05 -473.74 118.45 81.03 1.27 1.57 0.98 1.21 1.07 1.32 0.26 0.33 -0.33 -0.4 -0.61 -0.72 -1.4 -1.59 -1.85 -2.06 -3.25 -3.45 -3.97 -4 -4.68 -4.43 -6.01 -5.33 -6.2 -5.1 -8.65 -6.51 -10.11 -6.83 -9.8 -5.91 -9.93 -5.33 -11.15 -5.26 -10.37 -4.25 -9.97 -3.54 -9.8 -2.98 -7.72 -2 -6.27 -1.4 -5.91 -1.13 -4.56 -0.75 -2.24 -0.33 -1.97 -0.26 -1.73 -0.2 -0.55 -0.06 0.98 0.1 1.76 0.16 1.55 0.15 -46.24 494.96 -2.66 -0.25 -2.21 -0.22 -2.73 -0.26 -4.04 -0.42 -5 -0.58 -5.03 -0.65 -5.14 -0.74 -7.28 -1.19 -8.47 -1.63 -8.69 -1.93 -10.02 -2.6 -11.98 -3.63 -12.07 -4.29 -12.38 -5.07 -13.07 -6.17 -11.81 -6.34 -11.64 -7.02 -11.93 -8.06 -10.45 -7.87 -8 -6.59 -7.86 -6.95 -6.55 -6.22 -5.89 -5.92 -5.22 -5.55 -3.92 -4.34 -3.54 -4.05 -2.88 -3.38 -2.71 -3.25 -2.24 -2.73 -1.59 -1.95 -1.85 -2.28 -1.73 -2.16 118.45 81.03zm-118.45 -81.03c-86.1,-106.93 -69.05,-263.38 38.07,-349.45 107.12,-86.07 263.78,-69.16 349.88,37.77l-387.95 311.68zm-75.28 67.3l-8.47 -497.01 -21.34 1.3 11.98 -1.17 11.8 -1.02 11.94 -0.9 12.08 -0.76 11.92 -0.6 11.78 -0.46 11.91 -0.34 11.91 -0.17 11.89 -0.04 12.02 0.12 11.72 0.27 11.86 0.41 11.84 0.57 11.68 0.69 11.95 0.87 11.78 1.02 11.62 1.15 11.9 1.34 11.72 1.48 11.55 1.61 11.8 1.81 11.64 1.94 11.46 2.07 11.58 2.24 11.53 2.41 11.65 2.59 11.46 2.72 11.26 2.83 11.4 3.02 11.39 3.18 11.3 3.33 11.24 3.49 -151.05 473.74 -4.77 -1.47 -4.77 -1.41 -4.76 -1.34 -4.83 -1.28 -5.03 -1.26 -4.89 -1.17 -4.77 -1.06 -4.95 -1.02 -4.98 -0.97 -5.17 -0.92 -5.06 -0.85 -4.96 -0.75 -5.29 -0.73 -5.18 -0.66 -5.08 -0.57 -5.44 -0.54 -5.34 -0.47 -5.25 -0.38 -5.57 -0.34 -5.49 -0.27 -5.55 -0.19 -5.75 -0.13 -5.51 -0.06 -5.74 0.02 -5.78 0.09 -5.86 0.16 -6.05 0.24 -5.99 0.31 -5.91 0.37 -6.11 0.47 -6.33 0.55 -6.23 0.61 -21.34 1.3zm21.34 -1.3c-136.71,14.21 -259,-84.95 -273.12,-221.47 -14.12,-136.52 85.25,-258.73 221.96,-272.94l51.16 494.41zm-1594.61 -85.65l46.32 -494.96 9.31 1.04 45.4 5.82 45.62 5.62 45.78 5.44 45.96 5.23 46.2 5.03 46.32 4.84 46.46 4.62 46.63 4.42 46.78 4.23 46.9 4.02 47.03 3.82 47.12 3.6 47.25 3.4 47.35 3.19 47.41 2.98 47.5 2.77 47.59 2.56 47.64 2.34 47.69 2.13 47.71 1.91 47.74 1.7 47.81 1.49 47.8 1.27 47.77 1.04 47.82 0.82 47.8 0.61 47.77 0.39 47.74 0.17 47.73 -0.06 47.68 -0.29 47.6 -0.5 47.56 -0.74 8.47 497.01 -49.92 0.76 -50 0.54 -50 0.29 -50.05 0.06 -50.07 -0.17 -50.1 -0.41 -50.09 -0.63 -50.09 -0.86 -50.12 -1.1 -50.07 -1.33 -50.04 -1.55 -50.03 -1.78 -50.01 -2.01 -49.93 -2.23 -49.88 -2.46 -49.81 -2.68 -49.76 -2.89 -49.69 -3.13 -49.59 -3.33 -49.49 -3.56 -49.4 -3.78 -49.29 -4 -49.16 -4.22 -49.04 -4.42 -48.92 -4.64 -48.8 -4.86 -48.64 -5.08 -48.44 -5.29 -48.32 -5.48 -48.16 -5.71 -47.94 -5.92 -47.78 -6.12 9.31 1.04zm-9.31 -1.04c-136.26,-17.8 -232.19,-142.58 -214.26,-278.68 17.93,-136.1 142.94,-232 279.2,-214.2l-64.94 492.88zm-52.41 -24.28l46.32 -494.96 173.59 95.14 -4.57 -5.65 -4.82 -5.51 -5.65 -5.94 -5.42 -5.27 -5.65 -5.05 -6.41 -5.3 -5.9 -4.47 -6.66 -4.64 -6.66 -4.25 -5.86 -3.43 -5.88 -3.17 -5.87 -2.9 -6.03 -2.73 -5.97 -2.44 -5.06 -1.89 -4.4 -1.5 -4.64 -1.45 -4.09 -1.15 -3.81 -0.97 -3.4 -0.78 -2.14 -0.45 -2.72 -0.52 -2.22 -0.39 -0.95 -0.15 -1.43 -0.2 -0.86 -0.12 -0.27 -0.03 0.31 0.03 0.9 0.09 1.02 0.11 1.52 0.14 1.74 0.16 -46.32 494.96 -2.49 -0.24 -2.69 -0.26 -3.2 -0.31 -3.32 -0.35 -3.9 -0.43 -4.47 -0.53 -5.05 -0.65 -5.61 -0.79 -5.12 -0.8 -6.37 -1.08 -6.82 -1.31 -6.25 -1.3 -7.47 -1.72 -7.86 -2 -8.11 -2.28 -8.61 -2.68 -8.35 -2.85 -8.97 -3.34 -9.84 -4.03 -9.86 -4.45 -9.64 -4.76 -9.61 -5.18 -9.55 -5.59 -10.29 -6.56 -10.24 -7.14 -9.41 -7.13 -9.86 -8.13 -9.03 -8.08 -8.75 -8.48 -8.91 -9.37 -7.99 -9.14 -7.69 -9.5 173.59 95.14zm-173.59 -95.14c-84.15,-108.45 -64.29,-264.58 44.37,-348.71 108.66,-84.13 264.98,-64.42 349.13,44.04l-393.5 304.68zm-118.36 -193.63l492.72 69.82 -0.02 0.14 2.34 -39.92 -6.07 -47.88 -18.15 -51.43 -28.39 -45.07 -33.83 -34.69 -33.99 -23.81 -28.96 -14.23 -23.46 -8.17 -18.98 -4.63 -14.14 -2.33 -11.19 -1.17 -8.32 -0.47 -6.09 -0.11 -4.22 0.06 -2.7 0.1 -1.84 0.1 -0.75 0.06 -0.2 0.01 1.15 -0.12 2.27 -0.23 2.23 -0.23 2.96 -0.32 3.59 -0.38 4.33 -0.45 5.07 -0.47 5.44 -0.46 6.73 -0.48 7.8 -0.41 8.03 -0.25 9.91 -0.05 11.65 0.34 13.34 0.92 -46.32 494.96 8.9 0.62 6.93 0.2 4.95 -0.01 2.86 -0.09 2.44 -0.13 1.22 -0.08 -0.22 0.02 -0.68 0.07 -1.5 0.15 -2.28 0.24 -2.96 0.32 -3.64 0.39 -3.58 0.37 -4.64 0.46 -5.87 0.51 -6.33 0.48 -7.26 0.42 -7.93 0.3 -9.25 0.14 -10.87 -0.19 -12.86 -0.7 -15.43 -1.61 -18.07 -2.97 -22.55 -5.48 -26.67 -9.28 -31.76 -15.58 -36.37 -25.46 -35.73 -36.64 -29.81 -47.31 -19.06 -54.01 -6.43 -50.82 2.54 -43.21 -0.02 0.14zm0.02 -0.14c19.48,-135.89 145.58,-230.35 281.62,-211 136.04,19.35 230.54,145.22 211.06,281.1l-492.68 -70.1zm-464.14 500.05l-473.7 -152.16 -10.73 101.37 -11.32 -150.71 -2.79 -143.27 5.4 -135.78 13.2 -128.32 20.72 -120.88 27.91 -113.45 34.87 -105.98 41.56 -98.47 48.1 -90.8 54.41 -82.91 60.58 -74.72 66.53 -66.05 72.25 -56.84 77.61 -46.86 82.32 -35.95 86.13 -24.1 88.68 -11.33 89.48 2.17 88.26 15.95 84.98 29.5 79.73 42.25 72.91 53.85 65.03 64.12 56.58 73.13 47.82 81.03 39.06 88.11 30.34 94.6 21.68 100.76 13.02 106.71 4.31 112.54 -4.53 118.37 -13.55 124.04 -492.72 -69.82 9.94 -90.98 3.14 -81.97 -2.79 -73.01 -7.81 -64 -11.84 -55.01 -14.79 -46.18 -16.66 -37.59 -17.42 -29.54 -17.15 -22.2 -16.14 -15.92 -14.65 -10.83 -13.14 -6.98 -12.2 -4.23 -12.15 -2.18 -13.11 -0.31 -15.07 1.94 -17.69 4.98 -20.55 9 -23.26 14.05 -25.56 20.12 -27.18 27 -27.99 34.51 -27.93 42.57 -27.02 51.03 -25.23 59.75 -22.59 68.69 -19.14 77.79 -14.91 86.98 -9.91 96.24 -4.19 105.55 2.23 114.89 9.33 124.37 -10.73 101.37z"/>
   </g>
   <path class="fil1 str9" d="M1102 4179.13c0,-446.69 -16.39,-821.48 210.65,-1217.88 230.64,-402.45 594.25,-511.88 972.24,-738.74 163.04,-97.66 333.75,-319.11 511.56,-378.26 214.61,-71.29 307.84,128.82 507.45,252.25 430.3,266.33 1004.75,266.01 1461.41,460.07 371.92,157.77 848.21,286.32 1164.13,512.86 369.21,264.99 826.84,637.84 894.3,1109.7 16.38,114.19 34.67,229.66 52.96,346.12 -2.68,-112.95 -6.83,-226.54 -10.48,-338.18 -12.42,-67.46 -26.74,-137.45 -41.05,-206.81 -24.52,-61.69 -57.43,-125.04 -67.6,-190.88 22.44,-36.89 1.89,-84 53.1,-84 4.16,6.38 6.24,12.43 8.31,18.47 16.53,0 32.74,-1.93 49.13,-3.83 69.86,34.67 108.64,137.14 141.43,202.65 80.02,223.34 67.74,440.64 34.81,670.04 -12.24,178.45 -1.89,358.86 0,537.32 0,102.45 -1.89,204.91 -4.11,307.33 4.11,110.72 4.11,110.72 24.66,284.75 16.39,47.1 32.74,92.26 47.24,137.46 53.28,77.95 108.46,145.67 174.16,213.14 34.86,14.31 67.6,28.63 100.57,41.05 55.18,-69.67 147.44,-120.88 229.35,-153.67 16.57,-18.79 16.57,-18.79 26.73,-20.68 34.86,-65.53 67.6,-133.31 94.2,-202.66 0,-53.47 0,-106.9 0,-160.04 -61.41,-280.93 -110.59,-565.96 -149.56,-850.38 -10.34,-149.83 -10.34,-149.83 -41.05,-399.91 -49.12,-239.88 -98.3,-481.68 -147.43,-723.45 -16.53,-71.62 -28.81,-143.51 -51.21,-215.08 -55.55,-108.83 -112.81,-217.61 -170.24,-326.12 2.21,-30.52 4.16,-63.31 4.16,-96.09 14.31,1.93 28.62,1.93 43.08,1.93 127.11,71.57 221.31,290.75 286.97,407.86 71.62,176.24 92.12,362.7 122.82,553.25 55.36,229.72 122.96,473.75 122.96,711.4 41.05,321.65 87.96,643.25 143.5,963.32 0,59.2 -10.21,116.77 -16.38,174.03 30.83,30.84 88.28,51.53 131.22,32.79 112.8,-126.98 116.77,-258.03 120.88,-426.32 0,-235.77 0,-471.48 0,-708.87 -38.97,-250.35 -45.16,-518.86 -61.55,-768.93 -12.1,-55.04 -26.73,-112.62 -40.86,-169.87 6,0 6,0 10.16,-20.69 -24.52,-82.1 -49.12,-163.87 -75.86,-245.93 -1.93,0 -4.16,0 -6.05,0 0,8.27 0,16.53 0,24.79 -32.92,-90.36 -79.88,-178.45 -121.07,-266.6 -16.21,-49.31 -53.14,-114.83 -53.14,-167.98 -26.69,-98.31 -51.35,-210.92 -82.05,-305.44 -26.6,-83.99 -71.76,-161.93 -71.76,-251.97 34.86,-35 143.46,100.24 164.01,129.19 41.04,67.41 41.04,67.41 122.95,235.44 34.82,110.67 67.79,221.4 100.53,332.13 104.35,245.92 190.41,502.05 248,764.49 7.94,90.05 14.31,178.19 20.36,266.61 -1.89,81.77 -3.98,161.6 -6.05,241.81 12.28,87.77 24.52,173.98 36.89,260.24 0,92.26 -18.43,434.27 -26.69,510.31 0,110.68 -2.08,221.41 -4.16,329.92 61.55,20.36 118.85,-45.21 137.46,-96.09 4.11,-45.48 2.07,-92.57 26.55,-129.47 18.47,-186.45 36.88,-372.9 55.36,-559.63 0,-69.35 -2.08,-141.29 -4.16,-212.86 12.42,-239.88 4.16,-467.37 -20.37,-705.3 0,-116.77 -4.11,-233.55 -20.5,-348.06 6.05,-137.46 -8.12,-276.81 -10.33,-414.22 -10.17,-71.9 -49.13,-229.39 -51.22,-262.5 -3.97,-6.05 -10.33,-12.1 -16.38,-20.36 -16.39,-102.42 -32.79,-206.77 -51.21,-311.44 -38.51,-123.75 -75.13,-249.11 -119.64,-370.96 -0.78,-1.3 -1.89,-2.87 -2.73,-4.16 -1.76,0 -3.5,0 -6.65,0 -2.4,-6.65 -4.94,-13.35 -7.48,-20.36 -231.29,-331.49 -528.92,-619.75 -846.47,-931.84 -93.36,-91.61 -187.37,-202.65 -284.7,-313.38 -40.58,-33.38 -80.85,-66.49 -119.96,-99.56 -71.76,-53.14 -145.55,-106.62 -219.37,-161.98 0,-1.89 0,-6.05 0,-10.16 -45.02,-18.47 -86.07,-47.1 -129.14,-73.83 -274.56,-90.05 -567.76,-116.73 -854.73,-137.1 -86.07,-23.22 -123.89,-33.11 -173.06,-44.55 -53.47,5.08 -106.76,9.88 -159.53,13.34 101.77,21.98 202.46,49.31 297.92,88.47 164,77.95 364.77,163.82 530.86,245.93 100.52,55.36 198.83,110.72 297.13,166.09 0,4.11 0,6.05 0,8.26 12.23,0 12.23,0 125.04,55.37 104.5,65.52 209.17,131.09 311.44,194.71 28.81,38.79 362.88,208.98 145.59,235.39 -32.65,-12.09 -65.57,-26.41 -98.31,-40.72 -12.42,-8.26 -170.24,-104.67 -170.24,-117.05 -8.08,0 -8.08,0 -305.39,-184.24 -153.67,-82.05 -153.67,-82.05 -452.87,-258.29 -172.32,-79.88 -344.41,-160.04 -516.55,-239.92 -147.43,-41.01 -299.34,-49.32 -450.8,-51.21 -57.43,-10.17 -114.83,-20.37 -174.17,-30.84 -96.26,-6.05 -202.97,10.47 -299.24,10.47 0,-4.16 0,-8.26 -2.08,-14.63 -49.31,0 -67.74,-6.05 -110.67,-26.41 -26.74,1.93 -55.36,4.16 -84.17,6.04 24.66,32.79 63.62,47.1 98.49,65.57 26.73,33.07 98.45,102.42 71.71,147.62 -22.58,6.01 -65.52,-18.47 -86.02,-24.52 -41.05,-8.26 -84.17,-16.52 -126.94,-24.52 -51.38,1.94 -102.64,3.84 -156.06,3.84 -149.7,-20.37 -350.28,-24.48 -489.82,41.04 -16.53,20.69 -32.74,39.12 -51.21,57.58 -22.44,47.1 -47.1,92.26 -71.76,137.14 -6.05,39.11 -38.78,69.67 -45.02,108.79 6.24,1.93 190.6,57.25 190.6,77.62 57.4,22.9 127.07,80.2 127.07,147.61 -2.07,0 -6.18,0 -10.16,0 -2.4,12.43 -2.4,12.43 -12.42,20.69 -22.44,-6.33 -45.02,-12.38 -67.6,-20.69 -20.36,0 -40.86,0 -61.55,0 -55.22,-26.36 -55.22,-26.36 -174.21,-67.41 -47.24,-4.16 -96.23,-8.26 -145.55,-12.42 -57.26,14.31 -116.77,28.62 -176.24,41.05 -36.76,24.47 -73.83,47.09 -110.59,69.67 -30.67,4.11 -63.63,8.26 -96.36,10.16 -18.48,-6.05 -38.98,-12.09 -59.53,-20.36 -2.07,-6.33 -3.97,-12.38 -6.04,-18.42 40.9,-73.84 102.45,-126.98 184.55,-161.94 81.91,-20.68 81.91,-20.68 188.48,-34.99 -2.07,-14.32 -2.07,-14.32 -14.45,-28.63 37.03,-51.26 37.03,-51.26 114.83,-184.55 92.26,-122.78 92.26,-122.78 108.79,-155.89 -39.11,0 -39.11,0 -90.31,-9.88 -65.57,0 -131.27,1.94 -194.91,-8.26 -50.88,34.67 -286.97,4.16 -374.93,8.26 -38.97,9.88 -77.76,20.36 -118.81,30.57 -221.45,94.47 -414.08,239.88 -586.36,412.01 61.55,6.33 153.85,-16.57 215.22,-32.79 82.09,4.16 418.24,26.74 381.16,157.82 -55.22,20.36 -145.4,4.12 -196.6,-20.36 -190.6,-51.57 -446.87,20.36 -618.96,112.62 -35,26.69 -69.54,53.1 -104.55,79.84 -41.51,20.68 -81.26,44.55 -119.58,71.29 -60.77,50.88 -123.15,102.41 -185.99,154.26 -46.59,44.56 -91.61,91.33 -134.87,137.14 -92.45,129.15 -92.45,129.15 -182.62,270.77 -131.09,249.7 -288.86,485.79 -430.43,731.72 -12.29,32.78 -26.74,63.62 -41.05,94.15 -30.57,20.36 -55.22,147.61 -65.57,188.66 -32.6,190.61 -75.86,378.95 -122.96,567.57 -26.55,26.73 -32.6,77.98 -40.86,116.77 8.26,76.05 -10.34,153.99 -16.53,227.5 -1.93,51.21 10.34,250.35 -20.36,280.92 -16.57,268.51 -34.86,549.42 0,817.61 143.32,440.96 143.32,440.96 225.56,666.24 28.43,42.94 55.03,86.21 81.77,129.15 32.92,28.95 159.85,94.15 159.85,120.88 4.12,0 8.27,0 10.34,0 3.97,-12.09 8.08,-24.47 12.42,-38.78 6.01,12.05 10.03,22.57 24.34,22.57 -4.02,-10.52 -10.21,-20.68 -16.26,-30.88 1.94,0 3.98,-2.22 6.05,-4.12 0,-6.04 0,-6.04 -8.12,-6.04 16.38,-65.53 32.78,-131.1 47.09,-196.94 4.16,-34.67 20.55,-258.02 47.24,-264.07 0,-14.64 -26.69,-70 -61.55,-168.3 -14.45,-86.21 -45.16,-198.83 -30.71,-286.98 28.63,-14.31 53.29,-4.11 88.15,-1.89 14.12,16.53 26.73,32.79 38.97,48.99 8.12,18.74 16.85,36.89 25.77,54.72 -85.61,-256.41 -77.81,-530.68 -77.81,-833.21z"/>
   <g>
    <path class="fil6" d="M6444.99 7192.41l1358.3 2538.32c4.21,245.17 -120.93,404.24 -375.35,477.24 -2069.48,153.86 -3829.6,312.92 -5925.47,224.97 -414.24,-17.37 73.36,-44.02 734.76,-73.65 1200.35,-53.79 3398.96,-208.06 4476.1,-647.32 733.59,-299.15 -105.96,-973.57 -839.47,-2477.36 3.64,-19.69 385.05,-25.75 571.13,-42.19z"/>
    <path id="1" class="fil7" d="M8021.15 9613.15l29.47 113.42 -465.18 121.75 -1358.3 -2538.32 435.72 -235.17 1358.3 2538.32zm-435.72 235.17l435.72 -235.17c64.69,120.91 19.61,271.58 -100.71,336.52 -120.31,64.93 -270.31,19.57 -335.01,-101.34zm-175.87 111.82l-49.66 8.88 16.71 -5.06 15.73 -5.26 14.69 -5.43 13.68 -5.54 12.69 -5.65 11.76 -5.75 10.77 -5.75 9.9 -5.79 9.06 -5.78 8.18 -5.71 7.46 -5.69 6.72 -5.61 6.12 -5.59 5.51 -5.51 5.01 -5.52 4.6 -5.56 4.23 -5.65 3.9 -5.75 3.63 -5.99 3.42 -6.28 3.16 -6.54 3 -7.02 2.84 -7.6 2.64 -8.12 2.4 -8.76 2.19 -9.52 1.9 -10.21 1.6 -10.94 1.25 -11.88 0.88 -12.73 0.46 -13.47 -0.02 -14.43 494.65 -8.33 0.02 31.03 -1.03 30.98 -2.13 30.73 -3.25 30.55 -4.43 30.5 -5.65 30.2 -6.87 29.89 -8.17 29.64 -9.46 29.27 -10.77 28.8 -12.12 28.35 -13.48 27.84 -14.75 27.07 -16.03 26.36 -17.31 25.59 -18.46 24.68 -19.62 23.75 -20.72 22.8 -21.74 21.78 -22.64 20.71 -23.57 19.68 -24.34 18.59 -25.12 17.55 -25.78 16.47 -26.44 15.47 -27.08 14.48 -27.61 13.49 -28.2 12.58 -28.73 11.67 -29.23 10.78 -29.69 9.94 -30.24 9.14 -49.66 8.88 -36.76 -495.66zm-49.66 8.88l136.07 477.91c-131.33,37.68 -268.28,-38.75 -305.85,-170.72 -37.57,-131.97 38.44,-269.51 169.78,-307.19zm-5847.23 215.64l0.01 0 193.84 7.46 191.99 6.08 190.3 4.73 188.71 3.44 187.23 2.18 185.9 0.97 184.69 -0.19 183.59 -1.3 182.61 -2.36 181.76 -3.39 181.01 -4.37 180.42 -5.32 179.93 -6.18 179.55 -7.05 179.32 -7.84 179.19 -8.59 179.19 -9.29 179.28 -9.97 179.52 -10.58 179.88 -11.14 180.34 -11.68 180.94 -12.17 181.65 -12.59 182.47 -12.98 183.41 -13.33 184.47 -13.63 185.65 -13.89 186.96 -14.08 188.36 -14.24 189.89 -14.35 191.55 -14.43 193.28 -14.44 36.76 495.66 -192.96 14.42 -191.33 14.41 -189.83 14.35 -188.42 14.24 -187.16 14.1 -186.01 13.9 -184.99 13.67 -184.09 13.37 -183.28 13.04 -182.6 12.67 -182.05 12.23 -181.63 11.76 -181.31 11.24 -181.09 10.68 -181.02 10.05 -181.05 9.39 -181.19 8.69 -181.44 7.93 -181.86 7.13 -182.33 6.28 -182.94 5.38 -183.67 4.43 -184.51 3.45 -185.47 2.4 -186.53 1.32 -187.73 0.19 -189.02 -0.99 -190.42 -2.22 -191.96 -3.5 -193.59 -4.81 -195.36 -6.18 -197.21 -7.6 0.01 0 20.39 -496.57zm735.7 422.89l0 0 -61.33 2.77 -60.18 2.75 -58.88 2.72 -57.41 2.7 -55.82 2.68 -54.1 2.66 -52.24 2.62 -50.23 2.6 -48.1 2.57 -45.79 2.53 -43.34 2.49 -40.74 2.46 -37.98 2.41 -35.04 2.37 -31.91 2.3 -28.52 2.24 -24.85 2.14 -20.84 2.01 -16.19 1.79 -10.44 1.38 -2.37 0.35 12.61 -3.12 57.01 -25.8 95.6 -305.69 -136.16 -133.14 -32.57 -9.68 -4.46 -0.82 7.73 0.85 15.79 1.35 22.41 1.52 28.42 1.56 34.24 1.57 -20.39 496.57 -38.18 -1.75 -33.72 -1.85 -29.67 -2.01 -26.54 -2.26 -25.08 -2.88 -28.05 -4.63 -47.19 -13.61 -142.09 -137.15 98.12 -309.78 67.7 -29.98 31.19 -7.41 23.87 -4 23.14 -3.06 24.52 -2.72 26.69 -2.59 29.26 -2.52 31.88 -2.5 34.54 -2.5 37.16 -2.51 39.74 -2.53 42.21 -2.54 44.57 -2.57 46.82 -2.59 48.95 -2.61 51.01 -2.64 52.89 -2.66 54.66 -2.68 56.31 -2.7 57.84 -2.72 59.18 -2.74 60.48 -2.77 61.61 -2.77 0 0 22.28 496.51zm4558.09 -665.32l0 0 -112.05 43.4 -117.39 41.17 -122.38 39.1 -127.1 37.16 -131.54 35.34 -135.67 33.61 -139.5 31.97 -142.97 30.38 -146.1 28.87 -148.91 27.39 -151.33 25.99 -153.4 24.63 -155.15 23.31 -156.48 22.02 -157.46 20.78 -158.07 19.6 -158.29 18.43 -158.16 17.32 -157.64 16.23 -156.74 15.18 -155.46 14.17 -153.8 13.19 -151.76 12.26 -149.32 11.36 -146.54 10.48 -143.34 9.65 -139.75 8.86 -135.83 8.09 -131.46 7.36 -126.74 6.66 -121.61 6 -116.15 5.38 -22.28 -496.51 114.64 -5.32 120.09 -5.92 125.11 -6.59 129.76 -7.26 134 -7.97 137.87 -8.74 141.32 -9.51 144.42 -10.34 147.1 -11.18 149.36 -12.06 151.28 -12.99 152.77 -13.91 153.89 -14.91 154.58 -15.91 154.89 -16.96 154.82 -18.03 154.32 -19.12 153.43 -20.26 152.13 -21.4 150.43 -22.59 148.32 -23.81 145.81 -25.03 142.84 -26.28 139.5 -27.56 135.71 -28.83 131.46 -30.12 126.8 -31.41 121.66 -32.68 116.07 -33.93 110 -35.13 103.38 -36.25 96.34 -37.31 0 0 186.26 460.53zm-689.41 -2662.13l-21.09 -154.76 67.22 134.94 67.58 130.39 67.68 125.99 67.51 121.71 67.04 117.52 66.3 113.42 65.29 109.45 63.99 105.6 62.43 101.86 60.58 98.26 58.48 94.78 56.12 91.5 53.49 88.36 50.63 85.49 47.49 82.85 44.12 80.52 40.47 78.6 36.54 77.11 32.24 76.27 27.47 76.14 22.01 76.87 15.49 78.49 7.44 80.86 -2.7 83.24 -15.06 84.39 -28.91 82.79 -42.62 77.59 -54.38 69.41 -63.52 60.07 -70.62 51.19 -76.69 43.66 -82.62 37.56 -186.26 -460.53 45.82 -20.76 33.92 -19.22 22.79 -16.41 13.3 -12.45 6.46 -8.15 2.87 -5.23 1.81 -5.4 1.55 -9.37 0.4 -16.24 -2.38 -24.53 -6.61 -32.95 -11.75 -40.79 -17.36 -47.91 -23.02 -54.35 -28.56 -60.23 -33.82 -65.65 -38.8 -70.76 -43.38 -75.67 -47.64 -80.41 -51.5 -85.11 -55.02 -89.7 -58.18 -94.3 -60.98 -98.89 -63.43 -103.5 -65.54 -108.16 -67.31 -112.85 -68.74 -117.61 -69.83 -122.4 -70.59 -127.27 -71.01 -132.2 -71.09 -137.19 -70.83 -142.18 -21.09 -154.76 486.4 90.99zm-21.09 -154.76l-444.22 218.53c-60.12,-123.26 -9.42,-272.12 113.24,-332.46 122.67,-60.34 270.86,-9.33 330.98,113.93zm131.16 184.66l239.65 129.96 -20.02 1.68 -20.65 1.58 -21.4 1.52 -21.92 1.42 -22.45 1.38 -22.95 1.31 -23.26 1.28 -23.58 1.23 -23.73 1.2 -23.85 1.19 -23.9 1.15 -23.68 1.13 -23.52 1.13 -23.25 1.11 -22.81 1.11 -22.2 1.1 -21.54 1.12 -20.8 1.11 -19.89 1.13 -18.82 1.13 -17.62 1.14 -16.31 1.14 -14.67 1.13 -12.83 1.11 -10.76 1.05 -8.06 0.91 -4.83 0.64 -0.18 0 7.06 -1.57 20.75 -6.53 53.36 -28.48 98.6 -155.42 -486.4 -90.99 101.46 -159.03 60.44 -31.96 31.84 -9.84 21.94 -4.76 18.29 -3.05 17.03 -2.31 16.95 -1.92 17.21 -1.69 17.89 -1.55 18.6 -1.43 19.28 -1.36 20.08 -1.3 20.79 -1.25 21.43 -1.21 22.01 -1.19 22.53 -1.16 22.95 -1.14 23.21 -1.13 23.41 -1.13 23.57 -1.13 23.64 -1.13 23.45 -1.13 23.3 -1.15 23.04 -1.16 22.55 -1.19 22.07 -1.2 21.34 -1.23 20.61 -1.26 19.68 -1.28 18.55 -1.3 17.44 -1.34 15.98 -1.34 239.65 129.96 -435.72 235.17zm239.65 129.96l-43.58 -495.1c136.07,-12.02 256.15,89.06 268.18,225.78 12.03,136.72 -88.53,257.3 -224.6,269.32z"/>
   </g>
   <path class="fil1 str10" d="M1983.23 7432.24l-560.81 1262 -575.6 1293.56 7.21 62.92 18.61 67.77 27.81 58.54c21.61,36.41 50.69,68.57 84.36,94.25l58.5 37.27 70.71 30.67 78.57 22.1 2950.21 17.67 2010.59 -82.3 959.51 -39.27 148.93 -22.58 139.85 -38.93c84.79,-29.91 167.22,-69.8 237.95,-125.31 97.14,-76.21 173.3,-180.37 192.71,-303.98 6.68,-42.54 18.8,-89.3 1.82,-128.88 -180.29,-420.2 -423.75,-810.32 -637.33,-1214.6l-11.84 -22.23c194.4,416.37 362.59,852.23 579.79,1251.35l4.01 51.01 -3.36 53.37 -10.65 50.75c-55.29,171.34 -209.43,277.74 -370.85,340.1l-132.64 41.56 -143.05 26.9 -954.85 80.75 -2008.83 169.82 -2960.97 25.23 -13.29 -1.41c-66.32,-2.05 -129.1,-33.58 -188.07,-64.01 -108.57,-56.03 -192.97,-145.23 -237.15,-259.74 -22.86,-59.28 -55.41,-125.14 -38.05,-186.28 133.56,-470.04 380.6,-899.28 574.52,-1347.8l569.47 -1316.15c14.31,-32.63 46.96,-51.55 80.52,-50.13l4574.35 -79.73c10.68,-0.2 33.74,3.78 39.84,14.53l314.95 591.17c-110.29,-175.66 -234.14,-341.15 -378.83,-491.12 -1495.64,-113.52 -2999.01,85.05 -4498.63,131.17zm5201.76 968.67l-324.31 -608.72c121.25,193.09 226.12,398.42 324.31,608.72z"/>
   <path class="fil8 str11" d="M3788.73 9943.6c1.57,-96.11 -75.3,-175.82 -171.8,-178.29 -96.57,-2.4 -176.23,73.44 -177.88,169.45 -1.81,96.06 75.23,175.86 171.75,178.33 96.53,2.42 176.15,-73.43 177.93,-169.49z"/>
   <polygon class="fil8 str12" points="1493.06,9829.8 1571.09,9771.55 1703.59,9794.51 1632.38,9679.07 1678.73,9583.42 1558.37,9617.39 1490.33,9545.32 1478.81,9644.04 1384.33,9706.55 1483.59,9718.97 "/>
   <polygon class="fil8 str13" points="3038.67,10024.53 3030.2,9954.13 3092.79,9879.58 2993.87,9881.13 2950.11,9816.69 2928,9904.54 2857.9,9920.49 2916.06,9964.49 2921.37,10046.8 2965.25,9989.23 "/>
   <path class="fil8 str14" d="M1979.31 9873.63c-34.87,-0.85 -63.65,26.55 -64.14,61.27 -0.61,34.47 27.15,63.45 61.92,64.24 34.85,0.84 63.48,-26.55 64.16,-61.2 0.58,-34.55 -27.08,-63.38 -61.94,-64.31z"/>
   <path class="fil8 str13" d="M1828.34 8964.99c-115.53,-2.89 -210.51,87.9 -212.69,202.77 -2.09,114.79 89.93,210.38 205.35,213.22 115.52,2.97 210.64,-87.87 212.8,-202.74 1.99,-114.8 -90.01,-210.22 -205.46,-213.25z"/>
   <g>
    <path class="fil8" d="M2117.32 8222.43c-123.17,-3.26 -224.94,93.95 -227.01,216.38 -1.14,59.25 21.07,115.58 62.49,158.46 41.37,43.16 97.03,67.62 156.66,69.04 122.94,3.14 225.02,-94 227.07,-216.35 2.01,-122.35 -96.17,-224.44 -219.22,-227.53l0 0zm350.8 230.72c-3.5,194.69 -165.35,348.9 -361.02,344.04 -94.76,-2.28 -183.36,-41.26 -249.05,-109.68 -65.84,-68.18 -101.18,-157.78 -99.53,-252 3.51,-194.69 165.46,-348.97 361.02,-344.09 195.63,5.03 352.02,167.3 348.58,361.73z"/>
    <path id="1" class="fil3 str15" d="M2117.32 8222.43c-123.17,-3.26 -224.94,93.95 -227.01,216.38 -1.14,59.25 21.07,115.58 62.49,158.46 41.37,43.16 97.03,67.62 156.66,69.04 122.94,3.14 225.02,-94 227.07,-216.35 2.01,-122.35 -96.17,-224.44 -219.22,-227.53m350.8 230.72c-3.5,194.69 -165.35,348.9 -361.02,344.04 -94.76,-2.28 -183.36,-41.26 -249.05,-109.68 -65.84,-68.18 -101.18,-157.78 -99.53,-252 3.51,-194.69 165.46,-348.97 361.02,-344.09 195.63,5.03 352.02,167.3 348.58,361.73z"/>
   </g>
   <polygon class="fil8 str13" points="2184.3,9640.7 2125.22,9562.6 2147.21,9430.95 2031.66,9500.97 1935.27,9454.08 1970.33,9574.11 1898.31,9641.24 1997.7,9653.47 2061.22,9747.97 2073.04,9649.27 "/>
   <polygon class="fil8 str13" points="2436.36,10053.94 2365.59,10061.83 2290.25,9999.09 2292.52,10097.46 2228.12,10140.45 2316.63,10163.12 2333.16,10233.12 2376.93,10175.54 2459.63,10170.84 2401.44,10126.79 "/>
   <polygon class="fil8 str13" points="3338.95,9989.54 3300.06,9993.94 3258.65,9959.37 3259.96,10013.44 3224.49,10036.93 3273.29,10049.43 3282.14,10088.08 3306.19,10056.26 3351.83,10053.74 3319.73,10029.52 "/>
   <polygon class="fil8 str13" points="2329.97,9269.13 2356.49,9218.69 2416.62,9211.74 2389.01,9162.67 2419.12,9069.91 2329.93,9110.07 2270.82,9063.25 2292.15,9145.99 2254.22,9193.33 2305.58,9191.82 "/>
   <polygon class="fil8 str16" points="1429.6,10178.49 1456.3,10128.13 1516.35,10121.15 1488.67,10072.13 1518.83,9979.28 1429.6,10019.53 1370.56,9972.75 1391.97,10055.55 1354.07,10102.75 1405.36,10101.25 "/>
   <polygon class="fil8 str13" points="2805.98,9659.8 2747.47,9511.56 2857.1,9357.33 2668.45,9377.92 2573.74,9259.07 2534.71,9455.53 2416.96,9493.11 2537.98,9556.86 2550.68,9709.1 2644.27,9589.89 "/>
   <polygon class="fil8 str17" points="4134.22,9989.54 4095.33,9993.94 4053.92,9959.37 4055.23,10013.44 4019.76,10036.93 4068.56,10049.43 4077.41,10088.08 4101.46,10056.26 4147.1,10053.74 4115,10029.52 "/>
   <polygon class="fil8 str18" points="2290.37,7802.87 2211.64,7811.79 2127.79,7741.78 2130.42,7851.28 2058.62,7898.83 2157.42,7924.14 2175.34,8002.39 2224.04,7937.97 2316.45,7932.88 2251.48,7883.83 "/>
   <polygon class="fil8 str19" points="2528.67,7978.86 2489.78,7983.26 2448.37,7948.69 2449.68,8002.76 2414.22,8026.24 2463.01,8038.74 2471.86,8077.39 2495.91,8045.57 2541.55,8043.06 2509.46,8018.84 "/>
   <path class="fil9 str20" d="M2498.12 3439.71c-51.25,16.52 -102.46,30.84 -151.59,45.16 -102.6,41.05 -102.6,41.05 -178.51,79.88 -75.72,53.1 -149.36,104.67 -223.34,155.88 -4.11,12.43 -36.88,38.84 -110.54,116.77 -69.81,110.68 -141.57,202.98 -190.74,323.87 -20.5,61.41 -38.98,122.81 -57.26,184.19 -8.27,45.52 -14.46,90.36 -20.69,133.62 4.16,171.81 20.69,346.17 98.49,503.94 49.13,247.86 264.35,447.01 477.53,561.52 102.46,42.98 209.17,82.09 317.68,102.45 192.78,14.64 371.1,28.63 561.65,0 47.1,-12.09 94.2,-24.47 141.3,-38.78 -16.26,34.95 -118.67,63.62 -159.91,69.62 -45.02,-20.36 -83.99,-6 -104.35,35 118.99,147.62 374.93,4.16 496,-65.85 38.83,-36.88 77.81,-73.5 118.85,-110.4 45.17,-65.85 94.34,-129.15 129.15,-201.04 28.63,-32.79 71.76,-75.73 84,-116.77 41.04,0 98.49,-233.83 108.78,-270.77 0,-96.36 0,-192.45 0,-288.86 -12.37,-94.15 -37.03,-190.56 -61.55,-282.49 -69.67,-184.88 -151.72,-377.34 -283,-524.95 -67.74,-53.48 -135.33,-106.58 -202.98,-161.94 0,-1.93 0,-6.04 0,-10.21 -12.23,-2.21 -71.57,-47.09 -161.93,-100.52 -30.71,-41.05 -143.14,-75.72 -194.67,-96.41 -143.32,-28.62 -286.97,-38.78 -432.37,-42.93z"/>
   <path class="fil8 str20" d="M2569.88 3546.28c-36.76,6.37 -73.83,12.42 -108.51,18.47 -47.23,14.31 -227.64,73.79 -245.92,120.88 -63.63,8.27 -166.22,129.15 -205.06,172.14 -45.16,61.69 -88.1,120.89 -131.22,180.36 -16.21,35 -32.78,69.67 -47.1,102.46 -24.79,90.36 -49.12,178.46 -71.75,266.6 -2.03,82.1 -4.12,163.82 -4.12,243.7 34.82,164.15 84,329.92 143.46,485.8 88.15,137.46 196.79,252.29 334.07,340.44 45.16,20.36 92.26,38.78 139.5,57.26 196.65,41.04 409.79,53.14 606.58,4.16 84.13,-30.89 170.01,-63.63 256.27,-96.41 143.46,-94.2 143.46,-94.2 233.64,-161.94 30.71,-65.56 63.49,-133.3 94.2,-200.76 18.28,-8.26 36.88,-16.21 55.36,-24.79 12.23,-50.93 26.55,-102.46 41.04,-153.67 0,-61.41 1.89,-122.82 4.12,-186.45 -8.27,-59.48 -14.45,-118.67 -20.5,-180.08 -28.81,-88.42 -57.58,-176.57 -86.07,-266.6 -38.98,-82.1 -77.95,-164.15 -116.91,-245.93 -30.71,-49.31 -49.18,-96.41 -100.39,-125.04 -151.59,-131.36 -289.05,-246.25 -477.71,-317.82 -98.31,-10.21 -196.61,-20.36 -292.98,-32.78z"/>
   <path class="fil9 str20" d="M2246.16 4694.16c-45.21,18.47 -45.21,18.47 -84.17,45.16 -3.98,47.1 -18.43,90.04 -12.24,137.14 22.57,22.58 45.02,45.16 69.67,67.78 67.6,12.06 186.45,44.84 227.46,-36.93 -16.35,-96.36 -53.29,-157.77 -139.31,-211.24 -20.55,0 -41.05,0 -61.41,-1.89z"/>
   <path class="fil8 str20" d="M3178.45 5595.79c-1.89,4.12 -3.98,6.38 -3.98,8.27 3.98,0 8.13,0 12.29,-1.89 -4.16,-2.26 -6.05,-4.16 -8.31,-6.38z"/>
   <path class="fil9 str21" d="M5255.98 3439.71c-51.26,16.52 -102.46,30.84 -151.6,45.16 -102.59,41.05 -102.59,41.05 -178.5,79.88 -75.72,53.1 -149.37,104.67 -223.34,155.88 -4.12,12.43 -36.89,38.84 -110.55,116.77 -69.81,110.68 -141.57,202.98 -190.74,323.87 -20.5,61.41 -38.97,122.81 -57.26,184.19 -8.26,45.52 -14.45,90.36 -20.69,133.62 4.16,171.81 20.69,346.17 98.5,503.94 49.12,247.86 264.34,447.01 477.53,561.52 102.46,42.98 209.17,82.09 317.67,102.45 192.78,14.64 371.1,28.63 561.66,0 47.1,-12.09 94.19,-24.47 141.29,-38.78 -16.26,34.95 -118.67,63.62 -159.9,69.62 -45.03,-20.36 -84,-6 -104.36,35 118.99,147.62 374.93,4.16 496,-65.85 38.84,-36.88 77.81,-73.5 118.86,-110.4 45.16,-65.85 94.33,-129.15 129.14,-201.04 28.63,-32.79 71.76,-75.73 84,-116.77 41.05,0 98.49,-233.83 108.79,-270.77 0,-96.36 0,-192.45 0,-288.86 -12.38,-94.15 -37.03,-190.56 -61.55,-282.49 -69.68,-184.88 -151.73,-377.34 -283,-524.95 -67.74,-53.48 -135.34,-106.58 -202.98,-161.94 0,-1.93 0,-6.04 0,-10.21 -12.24,-2.21 -71.58,-47.09 -161.94,-100.52 -30.71,-41.05 -143.14,-75.72 -194.67,-96.41 -143.31,-28.62 -286.97,-38.78 -432.36,-42.93z"/>
   <path class="fil8 str21" d="M5327.73 3546.28c-36.76,6.37 -73.83,12.42 -108.5,18.47 -47.24,14.31 -227.64,73.79 -245.93,120.88 -63.62,8.27 -166.22,129.15 -205.05,172.14 -45.17,61.69 -88.1,120.89 -131.23,180.36 -16.21,35 -32.78,69.67 -47.09,102.46 -24.79,90.36 -49.13,178.46 -71.76,266.6 -2.03,82.1 -4.11,163.82 -4.11,243.7 34.81,164.15 83.99,329.92 143.45,485.8 88.15,137.46 196.8,252.29 334.08,340.44 45.16,20.36 92.25,38.78 139.49,57.26 196.65,41.04 409.8,53.14 606.59,4.16 84.12,-30.89 170.01,-63.63 256.26,-96.41 143.46,-94.2 143.46,-94.2 233.64,-161.94 30.71,-65.56 63.49,-133.3 94.2,-200.76 18.28,-8.26 36.89,-16.21 55.36,-24.79 12.24,-50.93 26.55,-102.46 41.05,-153.67 0,-61.41 1.89,-122.82 4.11,-186.45 -8.26,-59.48 -14.45,-118.67 -20.5,-180.08 -28.81,-88.42 -57.58,-176.57 -86.07,-266.6 -38.97,-82.1 -77.95,-164.15 -116.91,-245.93 -30.71,-49.31 -49.17,-96.41 -100.38,-125.04 -151.6,-131.36 -289.05,-246.25 -477.72,-317.82 -98.31,-10.21 -196.6,-20.36 -292.98,-32.78z"/>
   <path class="fil9 str21" d="M5004.01 4694.16c-45.21,18.47 -45.21,18.47 -84.17,45.16 -3.98,47.1 -18.43,90.04 -12.24,137.14 22.58,22.58 45.02,45.16 69.67,67.78 67.6,12.06 186.46,44.84 227.46,-36.93 -16.34,-96.36 -53.29,-157.77 -139.31,-211.24 -20.55,0 -41.05,0 -61.41,-1.89z"/>
   <path class="fil8 str21" d="M5936.31 5595.79c-1.89,4.12 -3.97,6.38 -3.97,8.27 3.97,0 8.12,0 12.28,-1.89 -4.16,-2.26 -6.05,-4.16 -8.31,-6.38z"/>
   <path class="fil3 str22" d="M5868.23 6223.56c143.14,23.23 31.16,240.52 -33.24,283.46 -91.33,60.11 -355.08,198.55 -458.47,239.55 -345.19,136.49 -486.76,71.93 -820.83,115.8 -353.6,46.46 -772.77,-23.5 -1138.79,-48.02 -286.51,-19.39 -737.3,35.97 -974.31,-136.48 -85.42,-62.34 -182.81,-153.67 -152.89,-267.86 23.04,-88.14 125.82,-147.94 219.65,-125.35 9.88,27.33 31.67,44.83 40.58,71.57"/>
   <path class="fil0 str23" d="M1275.28 8800.67c-514.59,510.39 -1036.2,-1.95 -858.31,-709.84 188.2,-748.81 577.04,-1302.08 834.42,-2008.84 225.7,615.07 446.08,687.13 671.81,1302.17 -201.12,373.16 -336.98,723.06 -647.92,1416.51z"/>
   <path class="fil1 str24" d="M6965.4 10281.22c29.13,389.83 -62.87,663.62 -332.06,767.92 -367.5,29.64 -1157.25,206.31 -1487.31,83.71 -224.51,-83.43 -410.05,-291.29 -398.62,-709.69 738.31,-67.2 1479.72,-74.76 2218,-141.94z"/>
   <path class="fil1 str25" d="M4020.64 10434.38c22.73,304.54 -28.4,538.31 -180.24,675.7 -168.42,152.45 -483.34,134.66 -696.89,164.04 -350.09,48.16 -731.46,48.4 -937.69,-28.21 -224.47,-83.36 -400.92,-371.49 -389.5,-789.88 738.3,-67.2 1466.04,45.53 2204.32,-21.65z"/>
   <path class="fil2" d="M6965.4 10281.22c29.13,389.83 -62.87,663.62 -332.06,767.92 -367.5,29.64 -1157.27,206.31 -1487.31,83.71 -224.51,-83.41 1274.13,25.4 1285.55,-393 553.73,-50.38 -574.94,-383.96 -20.36,-417.57 184.84,-11.2 369.63,-24.27 554.18,-41.06z"/>
   <path class="fil2" d="M4032.93 10433.75c29.13,389.83 -62.87,663.62 -332.06,767.92 -367.5,29.64 -1157.27,206.31 -1487.31,83.71 -224.51,-83.41 1274.13,25.4 1285.55,-393 553.73,-50.38 -574.94,-383.96 -20.36,-417.58 184.84,-11.19 369.63,-24.26 554.18,-41.05z"/>
   <path class="fil0 str26" d="M7211.21 8792.22c628.06,505.15 1145.84,-121.74 867.45,-884.15 -294.53,-806.51 -848.96,-1512.74 -1215.18,-2264.77l-582.04 1912.9c468.46,107.03 903.31,455.82 929.77,1236.02z"/>
   <path class="fil3" d="M7205.35 8760.6c628.06,505.15 1145.84,-121.73 867.45,-884.15 -294.53,-806.5 -848.96,-1512.73 -1215.18,-2264.76l-500.54 1179.72 -81.51 733.18c468.46,107.03 903.31,455.82 929.77,1236.01z"/>
   <g>
    <path class="fil1 str27" d="M7121.56 8864.79c339.29,161.02 740.12,282.41 974.91,-112.13 160.44,-269.6 122.03,-609.34 17.61,-891.3l0 0 -607.84 -1146.17 -486.53 -819.33 -161.16 -271.42 -235.42 583.8 -236.62 590.19 -32.35 363.77 -28.45 327.42 141.36 38.42 175.4 75.61 165.25 104.9c323.49,250.97 417.95,592.3 501.7,966.84 99.82,92.98 188.48,169.54 335.74,179.89 206.09,14.49 369.15,-161.82 416.43,-349.85l23.41 -105.16 5.23 -239.78 -58.8 -268.97 0 0 -553.56 -1159.46 -458.15 -836.21 -157.01 -286.69 -2.18 -2.35 -3.08 -0.84 -3.65 8.14 -1.33 0.03 0.73 1.27 -523.74 1164.27c-18.49,45.5 -148.23,750.07 -79.96,783.96 170.45,84.59 330.34,110.42 480.05,241.81 284.9,249.99 330.58,556.41 350.9,907.3 -20.2,52.76 -5.3,114.73 41.12,152.02z"/>
   </g>
   <g>
    <path class="fil1 str28" d="M900.35 8869.64c-405.29,154.73 -490.68,-516.34 -431.49,-765.76l0 0 360.55 -1023.12 421.95 -998.02 5.64 12.6 232.17 516.65 210.02 375.63 84.56 142.41c309.67,554.02 -118.59,1255.42 -463.11,1711.69 -81.12,107.43 -176.97,175.36 -287.56,233.39 -19.94,30.32 -52.07,52.46 -90.7,58.6 -292.23,-41.82 -516.92,-169.4 -592.99,-478.9l-29.44 -177.67 4.35 -193.72 40.69 -205.64 0 0 421.99 -1017.25 464.08 -978.62 0.11 -0.14 0.18 -0.04 0.17 0.04 0.11 0.14 5.37 13.44 211.43 526.74 193.99 386.3 77.54 145.82c131.78,263.67 128.7,350.4 0.91,675.12 -131.09,333.18 -382.93,925.57 -789.83,1041.96 -16.18,-3.69 -33.29,-4.42 -50.7,-1.65z"/>
   </g>
   <path class="fil3" d="M921.41 9001.65c-366.77,58.5 -640.64,-368.84 -504.44,-910.82 188.2,-748.81 577.04,-1302.08 834.42,-2008.84 305.4,832.28 631.85,1156.4 623.91,1361.81 -15.29,395.21 -504.94,1486.3 -953.89,1557.85z"/>
   <path class="fil0 str29" d="M5946.7 1983.43l-4028.74 209.54c-523.74,27.19 -934.25,496.43 -900.64,1041.85l168.73 2736.52c121.57,1971.98 4364.45,1753.22 5497.66,584.56 318.48,-328.44 349.6,-898.03 343.32,-1105.42l-76.46 -2524.28c-16.55,-546.26 -480.12,-969.99 -1003.88,-942.77z"/>
   <path class="fil4" d="M6424.77 6923.33l1378.51 2807.4c4.21,245.17 -120.93,404.24 -375.35,477.24 -2069.48,153.86 -3829.6,312.94 -5925.47,224.97 -401.15,-16.84 -749.86,-209.76 -728.57,-544.64 471.32,-802.63 649.99,-1799.46 1121.27,-2602.08 1373.71,9.26 2269.12,342.98 3520.04,70.56 191.51,-41.7 814.35,-392.67 1009.57,-433.44z"/>
   <g>
    <path class="fil1" d="M958.35 4670.26c96.98,866.07 67.82,2274.18 1037.77,2693.23 398.26,172.06 922.87,151.01 1343.49,172.58l1478.07 -9.79c702.47,-110.42 1579.07,-366.72 1947.85,-1047.29l122.76 -250.9 133.82 -573.38 -6.64 -569.06 -1.09 -97.97 -79.12 -399.32 -139.01 -362.33c-509.87,-1100.86 -1608.11,-1588.88 -2743.18,-1753.36 -656.11,-95.08 -1427.59,-167.85 -2084.82,-53.93 -600.43,104.11 -662.89,797.66 -702.82,1278.3l-41.44 943.46 314.48 1834.17c142,401.46 452.75,660.7 869.19,718.84l1658.14 140.94c866.88,10.81 2112.86,-57.96 2630.49,-899.26l131.09 -233.15 162.38 -551.49 25.72 -564.92 4.52 -98.39 -56.55 -406.27 -120.04 -375.87c-461.24,-1164.34 -1591.09,-1763.65 -2760.3,-1982.34 -679.87,-127.16 -1504.21,-185.82 -2187.41,-61.37 -448.37,81.68 -724.95,500.62 -830.89,908.7 -127.81,492.4 -124.73,1095.11 -106.48,1600.14z"/>
   </g>
   <path class="fil3" d="M1091.22 4655.38l113.29 1011.43c64.73,578.19 266.38,1215.63 692.46,1494.99 375.95,246.45 947.33,163.33 1462.89,242.14 884.66,135.25 2045.57,40.17 2771.6,-380.62 682.01,-395.28 959.9,-1081.43 885.79,-2035.85 -86.77,-1117.84 -973.4,-1890.69 -1527.3,-2204.89 -943.05,-534.89 -1955.96,-447.67 -2677.47,-531.31 -1470.39,-170.48 -1663.05,626.74 -1680.64,1442.92 -7.99,370.93 -98.87,441.04 -40.62,961.19z"/>
   <path class="fil1" d="M7007.65 5749.06c-71.1,15.87 75.59,334.33 142.68,381.03 86.22,60.05 227.57,383 270.5,463.01 16.98,20.56 33.48,41.3 50.47,61.93 105.74,181.28 194.32,342.02 306.38,504.93 11.07,38.9 44.77,80.13 49.45,137.81 67.83,82.36 111.79,162.95 213.85,210.22 5.94,-18.43 29.5,-16.25 29.5,-16.25 22.46,2.08 44.96,4.17 56.84,-32.67 41.78,-129.6 61.02,-261.04 56.88,-395.19 -14.58,-172.63 16.59,-341.22 70.32,-507.82 459.67,175.93 942.83,277.98 1502.16,291.82 22.9,2.12 74.55,-12.3 103.61,-28.59 0.74,-76.13 -32.96,-117.38 -111.88,-162.64 -17.21,-20.9 -39.73,-22.99 -62.85,-25.13 -89.71,-84.36 -186.04,-150.69 -304.86,-218.73 -198.05,-113.71 -338.65,-260.13 -473.49,-425.06 424.65,-151.34 786.32,-327.32 1114.92,-544.72 5.96,-18.5 5.96,-18.5 11.86,-36.78 6.13,-19.03 6.13,-19.03 12.03,-37.31 -23.18,-2.14 -23.18,-2.14 -39.7,-22.66 -85.2,-27.04 -176.19,-35.48 -273.49,-25.36 -519.55,9.23 -1049.97,-21.13 -1545.87,-85.93 -22.49,-2.08 -45.33,-4.21 -61.72,-25.32 -22.93,-2.12 -71.42,12.23 -68.75,-6.38 -71.8,-966.74 174.87,-1076.64 -570.63,-578.94 -174.75,116.65 -163.72,1054.49 -478.2,1124.74z"/>
   <path class="fil1" d="M1102 4179.13c0,-446.69 -16.39,-821.48 210.65,-1217.88 230.64,-402.45 594.25,-511.88 972.24,-738.74 163.04,-97.66 333.75,-319.11 511.56,-378.26 214.61,-71.29 307.84,128.82 507.45,252.25 430.3,266.33 1004.75,266.01 1461.41,460.07 371.92,157.77 848.21,286.32 1164.13,512.86 369.21,264.99 826.84,637.84 894.3,1109.7 16.38,114.19 34.67,229.66 52.96,346.12 -2.68,-112.95 -6.83,-226.54 -10.48,-338.18 -12.42,-67.46 -26.74,-137.45 -41.05,-206.81 -24.52,-61.69 -57.43,-125.04 -67.6,-190.88 22.44,-36.89 1.89,-84 53.1,-84 4.16,6.38 6.24,12.43 8.31,18.47 16.53,0 32.74,-1.93 49.13,-3.83 69.86,34.67 108.64,137.14 141.43,202.65 80.02,223.34 67.74,440.64 34.81,670.04 -12.24,178.45 -1.89,358.86 0,537.32 0,102.45 -1.89,204.91 -4.11,307.33 4.11,110.72 4.11,110.72 24.66,284.75 16.39,47.1 32.74,92.26 47.24,137.46 53.28,77.95 108.46,145.67 174.16,213.14 34.86,14.31 67.6,28.63 100.57,41.05 55.18,-69.67 147.44,-120.88 229.35,-153.67 16.57,-18.79 16.57,-18.79 26.73,-20.68 34.86,-65.53 67.6,-133.31 94.2,-202.66 0,-53.47 0,-106.9 0,-160.04 -61.41,-280.93 -110.59,-565.96 -149.56,-850.38 -10.34,-149.83 -10.34,-149.83 -41.05,-399.91 -49.12,-239.88 -98.3,-481.68 -147.43,-723.45 -16.53,-71.62 -28.81,-143.51 -51.21,-215.08 -55.55,-108.83 -112.81,-217.61 -170.24,-326.12 2.21,-30.52 4.16,-63.31 4.16,-96.09 14.31,1.93 28.62,1.93 43.08,1.93 127.11,71.57 221.31,290.75 286.97,407.86 71.62,176.24 92.12,362.7 122.82,553.25 55.36,229.72 122.96,473.75 122.96,711.4 41.05,321.65 87.96,643.25 143.5,963.32 0,59.2 -10.21,116.77 -16.38,174.03 30.83,30.84 88.28,51.53 131.22,32.79 112.8,-126.98 116.77,-258.03 120.88,-426.32 0,-235.77 0,-471.48 0,-708.87 -38.97,-250.35 -45.16,-518.86 -61.55,-768.93 -12.1,-55.04 -26.73,-112.62 -40.86,-169.87 6,0 6,0 10.16,-20.69 -24.52,-82.1 -49.12,-163.87 -75.86,-245.93 -1.93,0 -4.16,0 -6.05,0 0,8.27 0,16.53 0,24.79 -32.92,-90.36 -79.88,-178.45 -121.07,-266.6 -16.21,-49.31 -53.14,-114.83 -53.14,-167.98 -26.69,-98.31 -51.35,-210.92 -82.05,-305.44 -26.6,-83.99 -71.76,-161.93 -71.76,-251.97 34.86,-35 143.46,100.24 164.01,129.19 41.04,67.41 41.04,67.41 122.95,235.44 34.82,110.67 67.79,221.4 100.53,332.13 104.35,245.92 190.41,502.05 248,764.49 7.94,90.05 14.31,178.19 20.36,266.61 -1.89,81.77 -3.98,161.6 -6.05,241.81 12.28,87.77 24.52,173.98 36.89,260.24 0,92.26 -18.43,434.27 -26.69,510.31 0,110.68 -2.08,221.41 -4.16,329.92 61.55,20.36 118.85,-45.21 137.46,-96.09 4.11,-45.48 2.07,-92.57 26.55,-129.47 18.47,-186.45 36.88,-372.9 55.36,-559.63 0,-69.35 -2.08,-141.29 -4.16,-212.86 12.42,-239.88 4.16,-467.37 -20.37,-705.3 0,-116.77 -4.11,-233.55 -20.5,-348.06 6.05,-137.46 -8.12,-276.81 -10.33,-414.22 -10.17,-71.9 -49.13,-229.39 -51.22,-262.5 -3.97,-6.05 -10.33,-12.1 -16.38,-20.36 -16.39,-102.42 -32.79,-206.77 -51.21,-311.44 -38.51,-123.75 -75.13,-249.11 -119.64,-370.96 -0.78,-1.3 -1.89,-2.87 -2.73,-4.16 -1.76,0 -3.5,0 -6.65,0 -2.4,-6.65 -4.94,-13.35 -7.48,-20.36 -231.29,-331.49 -528.92,-619.75 -846.47,-931.84 -93.36,-91.61 -187.37,-202.65 -284.7,-313.38 -40.58,-33.38 -80.85,-66.49 -119.96,-99.56 -71.76,-53.14 -145.55,-106.62 -219.37,-161.98 0,-1.89 0,-6.05 0,-10.16 -45.02,-18.47 -86.07,-47.1 -129.14,-73.83 -274.56,-90.05 -567.76,-116.73 -854.73,-137.1 -86.07,-23.22 -123.89,-33.11 -173.06,-44.55 -53.47,5.08 -106.76,9.88 -159.53,13.34 101.77,21.98 202.46,49.31 297.92,88.47 164,77.95 364.77,163.82 530.86,245.93 100.52,55.36 198.83,110.72 297.13,166.09 0,4.11 0,6.05 0,8.26 12.23,0 12.23,0 125.04,55.37 104.5,65.52 209.17,131.09 311.44,194.71 28.81,38.79 362.88,208.98 145.59,235.39 -32.65,-12.09 -65.57,-26.41 -98.31,-40.72 -12.42,-8.26 -170.24,-104.67 -170.24,-117.05 -8.08,0 -8.08,0 -305.39,-184.24 -153.67,-82.05 -153.67,-82.05 -452.87,-258.29 -172.32,-79.88 -344.41,-160.04 -516.55,-239.92 -147.43,-41.01 -299.34,-49.32 -450.8,-51.21 -57.43,-10.17 -114.83,-20.37 -174.17,-30.84 -96.26,-6.05 -202.97,10.47 -299.24,10.47 0,-4.16 0,-8.26 -2.08,-14.63 -49.31,0 -67.74,-6.05 -110.67,-26.41 -26.74,1.93 -55.36,4.16 -84.17,6.04 24.66,32.79 63.62,47.1 98.49,65.57 26.73,33.07 98.45,102.42 71.71,147.62 -22.58,6.01 -65.52,-18.47 -86.02,-24.52 -41.05,-8.26 -84.17,-16.52 -126.94,-24.52 -51.38,1.94 -102.64,3.84 -156.06,3.84 -149.7,-20.37 -350.28,-24.48 -489.82,41.04 -16.53,20.69 -32.74,39.12 -51.21,57.58 -22.44,47.1 -47.1,92.26 -71.76,137.14 -6.05,39.11 -38.78,69.67 -45.02,108.79 6.24,1.93 190.6,57.25 190.6,77.62 57.4,22.9 127.07,80.2 127.07,147.61 -2.07,0 -6.18,0 -10.16,0 -2.4,12.43 -2.4,12.43 -12.42,20.69 -22.44,-6.33 -45.02,-12.38 -67.6,-20.69 -20.36,0 -40.86,0 -61.55,0 -55.22,-26.36 -55.22,-26.36 -174.21,-67.41 -47.24,-4.16 -96.23,-8.26 -145.55,-12.42 -57.26,14.31 -116.77,28.62 -176.24,41.05 -36.76,24.47 -73.83,47.09 -110.59,69.67 -30.67,4.11 -63.63,8.26 -96.36,10.16 -18.48,-6.05 -38.98,-12.09 -59.53,-20.36 -2.07,-6.33 -3.97,-12.38 -6.04,-18.42 40.9,-73.84 102.45,-126.98 184.55,-161.94 81.91,-20.68 81.91,-20.68 188.48,-34.99 -2.07,-14.32 -2.07,-14.32 -14.45,-28.63 37.03,-51.26 37.03,-51.26 114.83,-184.55 92.26,-122.78 92.26,-122.78 108.79,-155.89 -39.11,0 -39.11,0 -90.31,-9.88 -65.57,0 -131.27,1.94 -194.91,-8.26 -50.88,34.67 -286.97,4.16 -374.93,8.26 -38.97,9.88 -77.76,20.36 -118.81,30.57 -221.45,94.47 -414.08,239.88 -586.36,412.01 61.55,6.33 153.85,-16.57 215.22,-32.79 82.09,4.16 418.24,26.74 381.16,157.82 -55.22,20.36 -145.4,4.12 -196.6,-20.36 -190.6,-51.57 -446.87,20.36 -618.96,112.62 -35,26.69 -69.54,53.1 -104.55,79.84 -41.51,20.68 -81.26,44.55 -119.58,71.29 -60.77,50.88 -123.15,102.41 -185.99,154.26 -46.59,44.56 -91.61,91.33 -134.87,137.14 -92.45,129.15 -92.45,129.15 -182.62,270.77 -131.09,249.7 -288.86,485.79 -430.43,731.72 -12.29,32.78 -26.74,63.62 -41.05,94.15 -30.57,20.36 -55.22,147.61 -65.57,188.66 -32.6,190.61 -75.86,378.95 -122.96,567.57 -26.55,26.73 -32.6,77.98 -40.86,116.77 8.26,76.05 -10.34,153.99 -16.53,227.5 -1.93,51.21 10.34,250.35 -20.36,280.92 -16.57,268.51 -34.86,549.42 0,817.61 143.32,440.96 143.32,440.96 225.56,666.24 28.43,42.94 55.03,86.21 81.77,129.15 32.92,28.95 159.85,94.15 159.85,120.88 4.12,0 8.27,0 10.34,0 3.97,-12.09 8.08,-24.47 12.42,-38.78 6.01,12.05 10.03,22.57 24.34,22.57 -4.02,-10.52 -10.21,-20.68 -16.26,-30.88 1.94,0 3.98,-2.22 6.05,-4.12 0,-6.04 0,-6.04 -8.12,-6.04 16.38,-65.53 32.78,-131.1 47.09,-196.94 4.16,-34.67 20.55,-258.02 47.24,-264.07 0,-14.64 -26.69,-70 -61.55,-168.3 -14.45,-86.21 -45.16,-198.83 -30.71,-286.98 28.63,-14.31 53.29,-4.11 88.15,-1.89 14.12,16.53 26.73,32.79 38.97,48.99 8.12,18.74 16.85,36.89 25.77,54.72 -85.61,-256.41 -77.81,-530.68 -77.81,-833.21z"/>
   <path class="fil6" d="M6380.4 6804.85l1422.89 2925.88c4.21,245.17 -120.93,404.24 -375.35,477.24 -2069.48,153.86 -3829.6,312.92 -5925.47,224.97 -414.24,-17.37 73.36,-44.02 734.76,-73.65 1200.35,-53.79 3398.98,-208.1 4476.1,-647.32 733.54,-299.13 32.48,-1047.39 -701.03,-2551.19 3.64,-19.68 182.03,-339.48 368.1,-355.93z"/>
   <path class="fil1" d="M1973.99 7321.51l-551.57 1372.73 -575.6 1293.56 7.21 62.92 18.61 67.77 27.81 58.54c21.61,36.41 50.69,68.57 84.36,94.25l58.5 37.27 70.71 30.67 78.57 22.1 2950.21 17.67 2010.59 -82.3 959.51 -39.27 148.93 -22.58 139.85 -38.93c84.79,-29.91 167.22,-69.8 237.95,-125.31 97.14,-76.21 173.3,-180.37 192.71,-303.98 6.68,-42.54 18.8,-89.3 1.82,-128.88 -180.29,-420.2 -423.75,-810.32 -637.33,-1214.6l-11.84 -22.23c194.4,416.37 362.59,852.23 579.79,1251.35l4.01 51.01 -3.36 53.37 -10.65 50.75c-55.29,171.34 -209.43,277.74 -370.85,340.1l-132.64 41.56 -143.05 26.9 -954.85 80.75 -2008.83 169.82 -2960.97 25.23 -13.29 -1.41c-66.32,-2.05 -129.1,-33.58 -188.07,-64.01 -108.57,-56.03 -192.97,-145.23 -237.15,-259.74 -22.86,-59.28 -55.41,-125.14 -38.05,-186.28 133.56,-470.04 380.6,-899.28 574.52,-1347.8l560.22 -1426.87c14.31,-32.63 -8.42,188.39 25.15,189.82 285.64,-13.93 1651,252.13 2780.48,79.83 935.85,-142.77 1766.34,-611.29 1769.09,-606.43l444.19 923.35c-110.29,-175.66 -386.12,-709.66 -530.8,-859.62 -606.51,211.86 -1210.71,486.46 -1832.2,517.72 -835.7,42.04 -1650.72,-8.69 -2523.7,-128.77zm5211.01 1079.4l-324.31 -608.72c121.25,193.09 226.12,398.42 324.31,608.72z"/>
   <path class="fil8" d="M3788.73 9943.6c1.57,-96.11 -75.3,-175.82 -171.8,-178.29 -96.57,-2.4 -176.23,73.44 -177.88,169.45 -1.81,96.06 75.23,175.86 171.75,178.33 96.53,2.42 176.15,-73.43 177.93,-169.49z"/>
   <polygon class="fil8" points="1493.06,9829.8 1571.09,9771.55 1703.59,9794.51 1632.38,9679.07 1678.73,9583.42 1558.37,9617.39 1490.33,9545.32 1478.81,9644.04 1384.33,9706.55 1483.59,9718.97 "/>
   <polygon class="fil8" points="3038.67,10024.53 3030.2,9954.13 3092.79,9879.58 2993.87,9881.13 2950.11,9816.69 2928,9904.54 2857.9,9920.49 2916.06,9964.49 2921.37,10046.8 2965.25,9989.23 "/>
   <path class="fil8" d="M1979.31 9873.63c-34.87,-0.85 -63.65,26.55 -64.14,61.27 -0.61,34.47 27.15,63.45 61.92,64.24 34.85,0.84 63.48,-26.55 64.16,-61.2 0.58,-34.55 -27.08,-63.38 -61.94,-64.31z"/>
   <path class="fil8" d="M1828.34 8964.99c-115.53,-2.89 -210.51,87.9 -212.69,202.77 -2.09,114.79 89.93,210.38 205.35,213.22 115.52,2.97 210.64,-87.87 212.8,-202.74 1.99,-114.8 -90.01,-210.22 -205.46,-213.25z"/>
   <g>
    <path class="fil8" d="M2117.32 8222.43c-123.17,-3.26 -224.94,93.95 -227.01,216.38 -1.14,59.25 21.07,115.58 62.49,158.46 41.37,43.16 97.03,67.62 156.66,69.04 122.94,3.14 225.02,-94 227.07,-216.35 2.01,-122.35 -96.17,-224.44 -219.22,-227.53l0 0zm350.8 230.72c-3.5,194.69 -165.35,348.9 -361.02,344.04 -94.76,-2.28 -183.36,-41.26 -249.05,-109.68 -65.84,-68.18 -101.18,-157.78 -99.53,-252 3.51,-194.69 165.46,-348.97 361.02,-344.09 195.63,5.03 352.02,167.3 348.58,361.73z"/>
   </g>
   <polygon class="fil8" points="2184.3,9640.7 2125.22,9562.6 2147.21,9430.95 2031.66,9500.97 1935.27,9454.08 1970.33,9574.11 1898.31,9641.24 1997.7,9653.47 2061.22,9747.97 2073.04,9649.27 "/>
   <polygon class="fil8" points="2436.36,10053.94 2365.59,10061.83 2290.25,9999.09 2292.52,10097.46 2228.12,10140.45 2316.63,10163.12 2333.16,10233.12 2376.93,10175.54 2459.63,10170.84 2401.44,10126.79 "/>
   <polygon class="fil8" points="3338.95,9989.54 3300.06,9993.94 3258.65,9959.37 3259.96,10013.44 3224.49,10036.93 3273.29,10049.43 3282.14,10088.08 3306.19,10056.26 3351.83,10053.74 3319.73,10029.52 "/>
   <polygon class="fil8" points="2329.97,9269.13 2356.49,9218.69 2416.62,9211.74 2389.01,9162.67 2419.12,9069.91 2329.93,9110.07 2270.82,9063.25 2292.15,9145.99 2254.22,9193.33 2305.58,9191.82 "/>
   <polygon class="fil8" points="1429.6,10178.49 1456.3,10128.13 1516.35,10121.15 1488.67,10072.13 1518.83,9979.28 1429.6,10019.53 1370.56,9972.75 1391.97,10055.55 1354.07,10102.75 1405.36,10101.25 "/>
   <polygon class="fil8" points="2805.98,9659.8 2747.47,9511.56 2857.1,9357.33 2668.45,9377.92 2573.74,9259.07 2534.71,9455.53 2416.96,9493.11 2537.98,9556.86 2550.68,9709.1 2644.27,9589.89 "/>
   <polygon class="fil8" points="4134.22,9989.54 4095.33,9993.94 4053.92,9959.37 4055.23,10013.44 4019.76,10036.93 4068.56,10049.43 4077.41,10088.08 4101.46,10056.26 4147.1,10053.74 4115,10029.52 "/>
   <polygon class="fil8" points="2290.37,7802.87 2211.64,7811.79 2127.79,7741.78 2130.42,7851.28 2058.62,7898.83 2157.42,7924.14 2175.34,8002.39 2224.04,7937.97 2316.45,7932.88 2251.48,7883.83 "/>
   <polygon class="fil8" points="2528.67,7978.86 2489.78,7983.26 2448.37,7948.69 2449.68,8002.76 2414.22,8026.24 2463.01,8038.74 2471.86,8077.39 2495.91,8045.57 2541.55,8043.06 2509.46,8018.84 "/>
   <path class="fil1" d="M2498.12 3439.71c-51.25,16.52 -102.46,30.84 -151.59,45.16 -102.6,41.05 -102.6,41.05 -178.51,79.88 -75.72,53.1 -149.36,104.67 -223.34,155.88 -4.11,12.43 -36.88,38.84 -110.54,116.77 -69.81,110.68 -141.57,202.98 -190.74,323.87 -20.5,61.41 -38.98,122.81 -57.26,184.19 -8.27,45.52 -14.46,90.36 -20.69,133.62 4.16,171.81 20.69,346.17 98.49,503.94 49.13,247.86 264.35,447.01 477.53,561.52 102.46,42.98 209.17,82.09 317.68,102.45 192.78,14.64 371.1,28.63 561.65,0 47.1,-12.09 94.2,-24.47 141.3,-38.78 -16.26,34.95 -118.67,63.62 -159.91,69.62 -45.02,-20.36 -83.99,-6 -104.35,35 118.99,147.62 374.93,4.16 496,-65.85 38.83,-36.88 77.81,-73.5 118.85,-110.4 45.17,-65.85 94.34,-129.15 129.15,-201.04 28.63,-32.79 71.76,-75.73 84,-116.77 41.04,0 98.49,-233.83 108.78,-270.77 0,-96.36 0,-192.45 0,-288.86 -12.37,-94.15 -37.03,-190.56 -61.55,-282.49 -69.67,-184.88 -151.72,-377.34 -283,-524.95 -67.74,-53.48 -135.33,-106.58 -202.98,-161.94 0,-1.93 0,-6.04 0,-10.21 -12.23,-2.21 -71.57,-47.09 -161.93,-100.52 -30.71,-41.05 -143.14,-75.72 -194.67,-96.41 -143.32,-28.62 -286.97,-38.78 -432.37,-42.93z"/>
   <path class="fil8" d="M2569.88 3546.28c-36.76,6.37 -73.83,12.42 -108.51,18.47 -47.23,14.31 -227.64,73.79 -245.92,120.88 -63.63,8.27 -166.22,129.15 -205.06,172.14 -45.16,61.69 -88.1,120.89 -131.22,180.36 -16.21,35 -32.78,69.67 -47.1,102.46 -24.79,90.36 -49.12,178.46 -71.75,266.6 -2.03,82.1 -4.12,163.82 -4.12,243.7 34.82,164.15 84,329.92 143.46,485.8 88.15,137.46 196.79,252.29 334.07,340.44 45.16,20.36 92.26,38.78 139.5,57.26 196.65,41.04 409.79,53.14 606.58,4.16 84.13,-30.89 170.01,-63.63 256.27,-96.41 143.46,-94.2 143.46,-94.2 233.64,-161.94 30.71,-65.56 63.49,-133.3 94.2,-200.76 18.28,-8.26 36.88,-16.21 55.36,-24.79 12.23,-50.93 26.55,-102.46 41.04,-153.67 0,-61.41 1.89,-122.82 4.12,-186.45 -8.27,-59.48 -14.45,-118.67 -20.5,-180.08 -28.81,-88.42 -57.58,-176.57 -86.07,-266.6 -38.98,-82.1 -77.95,-164.15 -116.91,-245.93 -30.71,-49.31 -49.18,-96.41 -100.39,-125.04 -151.59,-131.36 -289.05,-246.25 -477.71,-317.82 -98.31,-10.21 -196.61,-20.36 -292.98,-32.78z"/>
   <path class="fil1" d="M2246.16 4694.16c-45.21,18.47 -45.21,18.47 -84.17,45.16 -3.98,47.1 -18.43,90.04 -12.24,137.14 22.57,22.58 45.02,45.16 69.67,67.78 67.6,12.06 186.45,44.84 227.46,-36.93 -16.35,-96.36 -53.29,-157.77 -139.31,-211.24 -20.55,0 -41.05,0 -61.41,-1.89z"/>
   <path class="fil8" d="M3178.45 5595.79c-1.89,4.12 -3.98,6.38 -3.98,8.27 3.98,0 8.13,0 12.29,-1.89 -4.16,-2.26 -6.05,-4.16 -8.31,-6.38z"/>
   <path class="fil1" d="M5255.98 3439.71c-51.26,16.52 -102.46,30.84 -151.6,45.16 -102.59,41.05 -102.59,41.05 -178.5,79.88 -75.72,53.1 -149.37,104.67 -223.34,155.88 -4.12,12.43 -36.89,38.84 -110.55,116.77 -69.81,110.68 -141.57,202.98 -190.74,323.87 -20.5,61.41 -38.97,122.81 -57.26,184.19 -8.26,45.52 -14.45,90.36 -20.69,133.62 4.16,171.81 20.69,346.17 98.5,503.94 49.12,247.86 264.34,447.01 477.53,561.52 102.46,42.98 209.17,82.09 317.67,102.45 192.78,14.64 371.1,28.63 561.66,0 47.1,-12.09 94.19,-24.47 141.29,-38.78 -16.26,34.95 -118.67,63.62 -159.9,69.62 -45.03,-20.36 -84,-6 -104.36,35 118.99,147.62 374.93,4.16 496,-65.85 38.84,-36.88 77.81,-73.5 118.86,-110.4 45.16,-65.85 94.33,-129.15 129.14,-201.04 28.63,-32.79 71.76,-75.73 84,-116.77 41.05,0 98.49,-233.83 108.79,-270.77 0,-96.36 0,-192.45 0,-288.86 -12.38,-94.15 -37.03,-190.56 -61.55,-282.49 -69.68,-184.88 -151.73,-377.34 -283,-524.95 -67.74,-53.48 -135.34,-106.58 -202.98,-161.94 0,-1.93 0,-6.04 0,-10.21 -12.24,-2.21 -71.58,-47.09 -161.94,-100.52 -30.71,-41.05 -143.14,-75.72 -194.67,-96.41 -143.31,-28.62 -286.97,-38.78 -432.36,-42.93z"/>
   <path class="fil8" d="M5327.73 3546.28c-36.76,6.37 -73.83,12.42 -108.5,18.47 -47.24,14.31 -227.64,73.79 -245.93,120.88 -63.62,8.27 -166.22,129.15 -205.05,172.14 -45.17,61.69 -88.1,120.89 -131.23,180.36 -16.21,35 -32.78,69.67 -47.09,102.46 -24.79,90.36 -49.13,178.46 -71.76,266.6 -2.03,82.1 -4.11,163.82 -4.11,243.7 34.81,164.15 83.99,329.92 143.45,485.8 88.15,137.46 196.8,252.29 334.08,340.44 45.16,20.36 92.25,38.78 139.49,57.26 196.65,41.04 409.8,53.14 606.59,4.16 84.12,-30.89 170.01,-63.63 256.26,-96.41 143.46,-94.2 143.46,-94.2 233.64,-161.94 30.71,-65.56 63.49,-133.3 94.2,-200.76 18.28,-8.26 36.89,-16.21 55.36,-24.79 12.24,-50.93 26.55,-102.46 41.05,-153.67 0,-61.41 1.89,-122.82 4.11,-186.45 -8.26,-59.48 -14.45,-118.67 -20.5,-180.08 -28.81,-88.42 -57.58,-176.57 -86.07,-266.6 -38.97,-82.1 -77.95,-164.15 -116.91,-245.93 -30.71,-49.31 -49.17,-96.41 -100.38,-125.04 -151.6,-131.36 -289.05,-246.25 -477.72,-317.82 -98.31,-10.21 -196.6,-20.36 -292.98,-32.78z"/>
   <path class="fil1" d="M5004.01 4694.16c-45.21,18.47 -45.21,18.47 -84.17,45.16 -3.98,47.1 -18.43,90.04 -12.24,137.14 22.58,22.58 45.02,45.16 69.67,67.78 67.6,12.06 186.46,44.84 227.46,-36.93 -16.34,-96.36 -53.29,-157.77 -139.31,-211.24 -20.55,0 -41.05,0 -61.41,-1.89z"/>
   <path class="fil8" d="M5936.31 5595.79c-1.89,4.12 -3.97,6.38 -3.97,8.27 3.97,0 8.12,0 12.28,-1.89 -4.16,-2.26 -6.05,-4.16 -8.31,-6.38z"/>
   <path class="fil1 str30" d="M5154.38 6544.62c-725.15,314.14 -1451.13,393.81 -2175.58,45.23 -219.23,-105.49 -317.08,-193.44 -59.13,-273.47 288.58,-89.49 -67.74,-41.37 188.6,172.06 429.05,357.23 2053.56,238.29 2030.52,-133.87 -21.86,-353.28 509.96,180.12 15.59,190.06z"/>
  </g>
  <rect class="fil3" x="-0" y="-0" width="10181.61" height="11651.11"/>
 </g>
</svg>
